<?xml version="1.0" encoding="UTF-8"?><svg xmlns="http://www.w3.org/2000/svg" xmlns:xlink="http://www.w3.org/1999/xlink" fill-opacity="1" color-rendering="auto" color-interpolation="auto" text-rendering="auto" stroke="black" stroke-linecap="square" width="1397" stroke-miterlimit="10" shape-rendering="auto" stroke-opacity="1" fill="black" stroke-dasharray="none" font-weight="normal" stroke-width="1" height="480" font-family="'Dialog'" font-style="normal" stroke-linejoin="miter" font-size="12px" stroke-dashoffset="0" image-rendering="auto">
  <!--Generated by ySVG 2.6-->
  <defs id="genericDefs"/>
  <g>
    <defs id="defs1">
      <linearGradient x1="1111" gradientUnits="userSpaceOnUse" x2="1191" y1="283" y2="283" id="linearGradient1" spreadMethod="reflect">
        <stop stop-opacity="1" stop-color="rgb(44,160,44)" offset="0%"/>
        <stop stop-opacity="1" stop-color="rgb(12,95,57)" offset="100%"/>
      </linearGradient>
      <linearGradient x1="360" gradientUnits="userSpaceOnUse" x2="440" y1="283" y2="283" id="linearGradient2" spreadMethod="reflect">
        <stop stop-opacity="1" stop-color="rgb(255,251,139)" offset="0%"/>
        <stop stop-opacity="1" stop-color="rgb(44,160,44)" offset="100%"/>
      </linearGradient>
      <linearGradient x1="210" gradientUnits="userSpaceOnUse" x2="290" y1="283" y2="283" id="linearGradient3" spreadMethod="reflect">
        <stop stop-opacity="1" stop-color="rgb(23,190,207)" offset="0%"/>
        <stop stop-opacity="1" stop-color="rgb(44,160,44)" offset="100%"/>
      </linearGradient>
      <linearGradient x1="661" gradientUnits="userSpaceOnUse" x2="741" y1="283" y2="283" id="linearGradient4" spreadMethod="reflect">
        <stop stop-opacity="1" stop-color="rgb(44,160,44)" offset="0%"/>
        <stop stop-opacity="1" stop-color="rgb(42,248,167)" offset="100%"/>
      </linearGradient>
      <linearGradient x1="591" gradientUnits="userSpaceOnUse" x2="671" y1="390" y2="390" id="linearGradient5" spreadMethod="reflect">
        <stop stop-opacity="1" stop-color="rgb(44,160,44)" offset="0%"/>
        <stop stop-opacity="1" stop-color="rgb(148,103,189)" offset="100%"/>
      </linearGradient>
      <linearGradient x1="441" gradientUnits="userSpaceOnUse" x2="521" y1="390" y2="390" id="linearGradient6" spreadMethod="reflect">
        <stop stop-opacity="1" stop-color="rgb(44,160,44)" offset="0%"/>
        <stop stop-opacity="1" stop-color="rgb(148,103,189)" offset="100%"/>
      </linearGradient>
      <linearGradient x1="1306.5" gradientUnits="userSpaceOnUse" x2="1386.5" y1="390" y2="390" id="linearGradient7" spreadMethod="reflect">
        <stop stop-opacity="1" stop-color="rgb(23,190,207)" offset="0%"/>
        <stop stop-opacity="1" stop-color="rgb(44,160,44)" offset="100%"/>
      </linearGradient>
      <linearGradient x1="811" gradientUnits="userSpaceOnUse" x2="891" y1="283" y2="283" id="linearGradient8" spreadMethod="reflect">
        <stop stop-opacity="1" stop-color="rgb(44,160,44)" offset="0%"/>
        <stop stop-opacity="1" stop-color="rgb(42,248,167)" offset="100%"/>
      </linearGradient>
      <clipPath clipPathUnits="userSpaceOnUse" id="clipPath1">
        <path d="M0 0 L1397 0 L1397 480 L0 480 L0 0 Z"/>
      </clipPath>
      <clipPath clipPathUnits="userSpaceOnUse" id="clipPath2">
        <path d="M5 -15 L1402 -15 L1402 465 L5 465 L5 -15 Z"/>
      </clipPath>
    </defs>
    <g fill="white" text-rendering="geometricPrecision" shape-rendering="geometricPrecision" transform="translate(-5,15)" stroke="white">
      <rect x="5" width="1397" height="480" y="-15" clip-path="url(#clipPath2)" stroke="none"/>
    </g>
    <g id="y.node.0">
      <a target="_blank" xlink:type="simple" xlink:href="https://ims.tau.ac.il/tal/kr/search_l.aspx?course_num=05124165&amp;year=2025&amp;lang=HE" xlink:show="new">
        <g fill="rgb(44,160,44)" text-rendering="geometricPrecision" shape-rendering="geometricPrecision" transform="matrix(1,0,0,1,-5,15)" stroke="rgb(44,160,44)">
          <rect x="20" y="283" width="120" rx="4" ry="4" height="60" stroke="none"/>
        </g>
        <g text-rendering="geometricPrecision" stroke-miterlimit="1.45" shape-rendering="geometricPrecision" transform="matrix(1,0,0,1,-5,15)" stroke-linecap="butt">
          <rect x="20" y="283" fill="none" width="120" rx="4" ry="4" height="60"/>
        </g>
        <g>
          <g text-rendering="geometricPrecision" stroke-miterlimit="1.45" shape-rendering="geometricPrecision" font-family="'David'" transform="matrix(1,0,0,1,-5,15)" stroke-linecap="butt">
            <text x="35.6797" xml:space="preserve" y="304.1084" stroke="none">התקנים ביפולאריים</text>
            <text x="37.168" xml:space="preserve" y="315.915" stroke="none"> במעגלים להספקים</text>
            <text x="44.6475" xml:space="preserve" y="327.7217" stroke="none"> נמוכים וגבוהים</text>
          </g>
        </g>
      </a>
    </g>
    <g id="y.node.1">
      <a target="_blank" xlink:type="simple" xlink:href="https://ims.tau.ac.il/tal/kr/search_l.aspx?course_num=05124702&amp;year=2025&amp;lang=HE" xlink:show="new">
        <g fill="rgb(44,160,44)" text-rendering="geometricPrecision" shape-rendering="geometricPrecision" transform="matrix(1,0,0,1,-5,15)" stroke="rgb(44,160,44)">
          <rect x="1221" y="283" width="120" rx="4" ry="4" height="60" stroke="none"/>
        </g>
        <g text-rendering="geometricPrecision" stroke-miterlimit="1.45" shape-rendering="geometricPrecision" transform="matrix(1,0,0,1,-5,15)" stroke-linecap="butt">
          <rect x="1221" y="283" fill="none" width="120" rx="4" ry="4" height="60"/>
        </g>
        <g>
          <g text-rendering="geometricPrecision" stroke-miterlimit="1.45" shape-rendering="geometricPrecision" font-family="'David'" transform="matrix(1,0,0,1,-5,15)" stroke-linecap="butt">
            <text x="1240.8281" xml:space="preserve" y="310.0117" stroke="none">מערכות ממוזערות</text>
            <text x="1263.4043" xml:space="preserve" y="321.8184" stroke="none"> לבישות</text>
          </g>
        </g>
      </a>
    </g>
    <g id="y.node.2">
      <a target="_blank" xlink:type="simple" xlink:href="https://ims.tau.ac.il/tal/kr/search_l.aspx?course_num=05124710&amp;year=2025&amp;lang=HE" xlink:show="new">
        <g fill="url(#linearGradient1)" text-rendering="geometricPrecision" shape-rendering="geometricPrecision" transform="matrix(1,0,0,1,-5,15)" stroke="url(#linearGradient1)">
          <rect x="1071" y="283" width="120" rx="4" ry="4" height="60" stroke="none"/>
        </g>
        <g text-rendering="geometricPrecision" stroke-miterlimit="1.45" shape-rendering="geometricPrecision" transform="matrix(1,0,0,1,-5,15)" stroke-linecap="butt">
          <rect x="1071" y="283" fill="none" width="120" rx="4" ry="4" height="60"/>
        </g>
        <g>
          <g text-rendering="geometricPrecision" stroke-miterlimit="1.45" shape-rendering="geometricPrecision" font-family="'David'" transform="matrix(1,0,0,1,-5,15)" stroke-linecap="butt">
            <text x="1099.7959" xml:space="preserve" y="310.0117" stroke="none">מעבדה לרכיבי</text>
            <text x="1077.1729" xml:space="preserve" y="321.8184" stroke="none"> חומרה מיתכנתים-Fpga</text>
          </g>
        </g>
      </a>
    </g>
    <g id="y.node.3">
      <a target="_blank" xlink:type="simple" xlink:href="https://ims.tau.ac.il/tal/kr/search_l.aspx?course_num=05124631&amp;year=2025&amp;lang=HE" xlink:show="new">
        <g fill="url(#linearGradient2)" text-rendering="geometricPrecision" shape-rendering="geometricPrecision" transform="matrix(1,0,0,1,-5,15)" stroke="url(#linearGradient2)">
          <rect x="320" y="283" width="120" rx="4" ry="4" height="60" stroke="none"/>
        </g>
        <g text-rendering="geometricPrecision" stroke-miterlimit="1.45" shape-rendering="geometricPrecision" transform="matrix(1,0,0,1,-5,15)" stroke-linecap="butt">
          <rect x="320" y="283" fill="none" width="120" rx="4" ry="4" height="60"/>
        </g>
        <g>
          <g text-rendering="geometricPrecision" stroke-miterlimit="1.45" shape-rendering="geometricPrecision" font-family="'David'" transform="matrix(1,0,0,1,-5,15)" stroke-linecap="butt">
            <text x="335.3486" xml:space="preserve" y="310.0117" stroke="none">המרה פוטו-וולטאית</text>
            <text x="338.334" xml:space="preserve" y="321.8184" stroke="none"> של אנרגיית השמש</text>
          </g>
        </g>
      </a>
    </g>
    <g id="y.node.4">
      <a target="_blank" xlink:type="simple" xlink:href="https://ims.tau.ac.il/tal/kr/search_l.aspx?course_num=05124704&amp;year=2025&amp;lang=HE" xlink:show="new">
        <g fill="url(#linearGradient3)" text-rendering="geometricPrecision" shape-rendering="geometricPrecision" transform="matrix(1,0,0,1,-5,15)" stroke="url(#linearGradient3)">
          <rect x="170" y="283" width="120" rx="4" ry="4" height="60" stroke="none"/>
        </g>
        <g text-rendering="geometricPrecision" stroke-miterlimit="1.45" shape-rendering="geometricPrecision" transform="matrix(1,0,0,1,-5,15)" stroke-linecap="butt">
          <rect x="170" y="283" fill="none" width="120" rx="4" ry="4" height="60"/>
        </g>
        <g>
          <g text-rendering="geometricPrecision" stroke-miterlimit="1.45" shape-rendering="geometricPrecision" font-family="'David'" transform="matrix(1,0,0,1,-5,15)" stroke-linecap="butt">
            <text x="196.8008" xml:space="preserve" y="310.0117" stroke="none">מבוא להתקנים</text>
            <text x="186.5088" xml:space="preserve" y="321.8184" stroke="none"> אופטו-אלקטרוניים</text>
          </g>
        </g>
      </a>
    </g>
    <g id="y.node.5">
      <a target="_blank" xlink:type="simple" xlink:href="https://ims.tau.ac.il/tal/kr/search_l.aspx?course_num=05124700&amp;year=2025&amp;lang=HE" xlink:show="new">
        <g fill="url(#linearGradient4)" text-rendering="geometricPrecision" shape-rendering="geometricPrecision" transform="matrix(1,0,0,1,-5,15)" stroke="url(#linearGradient4)">
          <rect x="621" y="283" width="120" rx="4" ry="4" height="60" stroke="none"/>
        </g>
        <g text-rendering="geometricPrecision" stroke-miterlimit="1.45" shape-rendering="geometricPrecision" transform="matrix(1,0,0,1,-5,15)" stroke-linecap="butt">
          <rect x="621" y="283" fill="none" width="120" rx="4" ry="4" height="60"/>
        </g>
        <g>
          <g text-rendering="geometricPrecision" stroke-miterlimit="1.45" shape-rendering="geometricPrecision" font-family="'David'" transform="matrix(1,0,0,1,-5,15)" stroke-linecap="butt">
            <text x="642.6592" xml:space="preserve" y="310.0117" stroke="none">טכנולוגיות מיקרו</text>
            <text x="642.8262" xml:space="preserve" y="321.8184" stroke="none"> וננו אלקטרוניקה</text>
          </g>
        </g>
      </a>
    </g>
    <g id="y.node.6">
      <a target="_blank" xlink:type="simple" xlink:href="https://ims.tau.ac.il/tal/kr/search_l.aspx?course_num=05124705&amp;year=2025&amp;lang=HE" xlink:show="new">
        <g fill="rgb(44,160,44)" text-rendering="geometricPrecision" shape-rendering="geometricPrecision" transform="matrix(1,0,0,1,-5,15)" stroke="rgb(44,160,44)">
          <rect x="921" y="283" width="120" rx="4" ry="4" height="60" stroke="none"/>
        </g>
        <g text-rendering="geometricPrecision" stroke-miterlimit="1.45" shape-rendering="geometricPrecision" transform="matrix(1,0,0,1,-5,15)" stroke-linecap="butt">
          <rect x="921" y="283" fill="none" width="120" rx="4" ry="4" height="60"/>
        </g>
        <g>
          <g text-rendering="geometricPrecision" stroke-miterlimit="1.45" shape-rendering="geometricPrecision" font-family="'David'" transform="matrix(1,0,0,1,-5,15)" stroke-linecap="butt">
            <text x="935.1855" xml:space="preserve" y="310.0117" stroke="none">התקנים אלקטרוניים</text>
            <text x="957.4277" xml:space="preserve" y="321.8184" stroke="none"> מתקדמים</text>
          </g>
        </g>
      </a>
    </g>
    <g id="y.node.7">
      <a target="_blank" xlink:type="simple" xlink:href="https://ims.tau.ac.il/tal/kr/search_l.aspx?course_num=05124802&amp;year=2025&amp;lang=HE" xlink:show="new">
        <g fill="url(#linearGradient5)" text-rendering="geometricPrecision" shape-rendering="geometricPrecision" transform="matrix(1,0,0,1,-5,15)" stroke="url(#linearGradient5)">
          <rect x="551" y="390" width="120" rx="4" ry="4" height="60" stroke="none"/>
        </g>
        <g text-rendering="geometricPrecision" stroke-miterlimit="1.45" shape-rendering="geometricPrecision" transform="matrix(1,0,0,1,-5,15)" stroke-linecap="butt">
          <rect x="551" y="390" fill="none" width="120" rx="4" ry="4" height="60"/>
        </g>
        <g>
          <g text-rendering="geometricPrecision" stroke-miterlimit="1.45" shape-rendering="geometricPrecision" font-family="'David'" transform="matrix(1,0,0,1,-5,15)" stroke-linecap="butt">
            <text x="573.6523" xml:space="preserve" y="422.915" stroke="none">התקני מיקרוגל 1</text>
          </g>
        </g>
      </a>
    </g>
    <g id="y.node.8">
      <a target="_blank" xlink:type="simple" xlink:href="https://ims.tau.ac.il/tal/kr/search_l.aspx?course_num=05124803&amp;year=2025&amp;lang=HE" xlink:show="new">
        <g fill="url(#linearGradient6)" text-rendering="geometricPrecision" shape-rendering="geometricPrecision" transform="matrix(1,0,0,1,-5,15)" stroke="url(#linearGradient6)">
          <rect x="401" y="390" width="120" rx="4" ry="4" height="60" stroke="none"/>
        </g>
        <g text-rendering="geometricPrecision" stroke-miterlimit="1.45" shape-rendering="geometricPrecision" transform="matrix(1,0,0,1,-5,15)" stroke-linecap="butt">
          <rect x="401" y="390" fill="none" width="120" rx="4" ry="4" height="60"/>
        </g>
        <g>
          <g text-rendering="geometricPrecision" stroke-miterlimit="1.45" shape-rendering="geometricPrecision" font-family="'David'" transform="matrix(1,0,0,1,-5,15)" stroke-linecap="butt">
            <text x="419.0059" xml:space="preserve" y="411.1084" stroke="none">התקני מיקרוגל 2 - </text>
            <text x="421.1592" xml:space="preserve" y="422.915" stroke="none">נושאים מתקדמים</text>
            <text x="439.7539" xml:space="preserve" y="434.7217" stroke="none"> ויישומים</text>
          </g>
        </g>
      </a>
    </g>
    <g id="y.node.9">
      <g fill="url(#linearGradient7)" text-rendering="geometricPrecision" shape-rendering="geometricPrecision" transform="matrix(1,0,0,1,-5,15)" stroke="url(#linearGradient7)">
        <rect x="1266.5" y="390" width="120" rx="4" ry="4" height="60" stroke="none"/>
      </g>
      <g text-rendering="geometricPrecision" stroke-miterlimit="1.45" shape-rendering="geometricPrecision" transform="matrix(1,0,0,1,-5,15)" stroke-linecap="butt">
        <rect x="1266.5" y="390" fill="none" width="120" rx="4" ry="4" height="60"/>
      </g>
      <g>
        <g text-rendering="geometricPrecision" stroke-miterlimit="1.45" shape-rendering="geometricPrecision" font-family="'David'" transform="matrix(1,0,0,1,-5,15)" stroke-linecap="butt">
          <text x="1294.1299" xml:space="preserve" y="422.915" stroke="none">מבוא ללייזרים</text>
        </g>
      </g>
    </g>
    <g id="y.node.10">
      <a target="_blank" xlink:type="simple" xlink:href="https://ims.tau.ac.il/tal/kr/search_l.aspx?course_num=05106701&amp;year=2025&amp;lang=HE" xlink:show="new">
        <g fill="url(#linearGradient8)" text-rendering="geometricPrecision" shape-rendering="geometricPrecision" transform="matrix(1,0,0,1,-5,15)" stroke="url(#linearGradient8)">
          <rect x="771" y="283" width="120" rx="4" ry="4" height="60" stroke="none"/>
        </g>
        <g stroke-linecap="butt" transform="matrix(1,0,0,1,-5,15)" fill="fuchsia" text-rendering="geometricPrecision" shape-rendering="geometricPrecision" stroke-dasharray="30,10" stroke="fuchsia" stroke-width="5" stroke-miterlimit="1.45">
          <rect x="771" y="283" fill="none" width="120" rx="4" ry="4" height="60"/>
        </g>
        <g>
          <g text-rendering="geometricPrecision" stroke-miterlimit="1.45" shape-rendering="geometricPrecision" font-family="'David'" transform="matrix(1,0,0,1,-5,15)" stroke-linecap="butt">
            <text x="786.5098" xml:space="preserve" y="310.0117" stroke="none">פיזיקה מתקדמת של</text>
            <text x="794.4814" xml:space="preserve" y="321.8184" stroke="none"> מוליכים למחצה</text>
          </g>
        </g>
      </a>
    </g>
    <g id="y.node.11">
      <a target="_blank" xlink:type="simple" xlink:href="https://ims.tau.ac.il/tal/kr/search_l.aspx?course_num=05122508&amp;year=2025&amp;lang=HE" xlink:show="new">
        <g fill="rgb(255,204,0)" text-rendering="geometricPrecision" shape-rendering="geometricPrecision" transform="matrix(1,0,0,1,-5,15)" stroke="rgb(255,204,0)">
          <rect x="611" y="160" width="120" rx="4" ry="4" height="60" stroke="none"/>
        </g>
        <g text-rendering="geometricPrecision" stroke-miterlimit="1.45" shape-rendering="geometricPrecision" transform="matrix(1,0,0,1,-5,15)" stroke-linecap="butt">
          <rect x="611" y="160" fill="none" width="120" rx="4" ry="4" height="60"/>
        </g>
        <g>
          <g text-rendering="geometricPrecision" stroke-miterlimit="1.45" shape-rendering="geometricPrecision" font-family="'David'" transform="matrix(1,0,0,1,-5,15)" stroke-linecap="butt">
            <text x="653.4043" xml:space="preserve" y="187.0117" stroke="none">התקנים</text>
            <text x="642.7812" xml:space="preserve" y="198.8184" stroke="none"> אלקטרוניים</text>
          </g>
        </g>
      </a>
    </g>
    <g id="y.node.12">
      <a target="_blank" xlink:type="simple" xlink:href="https://ims.tau.ac.il/tal/kr/search_l.aspx?course_num=05122830&amp;year=2025&amp;lang=HE" xlink:show="new">
        <g fill="rgb(255,204,0)" text-rendering="geometricPrecision" shape-rendering="geometricPrecision" transform="matrix(1,0,0,1,-5,15)" stroke="rgb(255,204,0)">
          <rect x="1258.75" y="80" width="120" rx="4" ry="4" height="60" stroke="none"/>
        </g>
        <g text-rendering="geometricPrecision" stroke-miterlimit="1.45" shape-rendering="geometricPrecision" transform="matrix(1,0,0,1,-5,15)" stroke-linecap="butt">
          <rect x="1258.75" y="80" fill="none" width="120" rx="4" ry="4" height="60"/>
        </g>
        <g>
          <g text-rendering="geometricPrecision" stroke-miterlimit="1.45" shape-rendering="geometricPrecision" font-family="'David'" transform="matrix(1,0,0,1,-5,15)" stroke-linecap="butt">
            <text x="1280.9043" xml:space="preserve" y="107.0117" stroke="none">פיזיקה קוואנטית</text>
            <text x="1294.5156" xml:space="preserve" y="118.8184" stroke="none">ומצב מוצק</text>
          </g>
        </g>
      </a>
    </g>
    <g id="y.node.13">
      <a target="_blank" xlink:type="simple" xlink:href="https://ims.tau.ac.il/tal/kr/search_l.aspx?course_num=05123561&amp;year=2025&amp;lang=HE" xlink:show="new">
        <g fill="rgb(255,204,0)" text-rendering="geometricPrecision" shape-rendering="geometricPrecision" transform="matrix(1,0,0,1,-5,15)" stroke="rgb(255,204,0)">
          <rect x="1033.25" y="0" width="120" rx="4" ry="4" height="60" stroke="none"/>
        </g>
        <g text-rendering="geometricPrecision" stroke-miterlimit="1.45" shape-rendering="geometricPrecision" transform="matrix(1,0,0,1,-5,15)" stroke-linecap="butt">
          <rect x="1033.25" y="0" fill="none" width="120" rx="4" ry="4" height="60"/>
        </g>
        <g>
          <g text-rendering="geometricPrecision" stroke-miterlimit="1.45" shape-rendering="geometricPrecision" font-family="'David'" transform="matrix(1,0,0,1,-5,15)" stroke-linecap="butt">
            <text x="1080.9629" xml:space="preserve" y="32.915" stroke="none">מל"ס</text>
          </g>
        </g>
      </a>
    </g>
    <g id="y.node.14">
      <a target="_blank" xlink:type="simple" xlink:href="https://ims.tau.ac.il/tal/kr/search_l.aspx?course_num=05122832&amp;year=2025&amp;lang=HE" xlink:show="new">
        <g fill="rgb(255,204,0)" text-rendering="geometricPrecision" shape-rendering="geometricPrecision" transform="matrix(1,0,0,1,-5,15)" stroke="rgb(255,204,0)">
          <rect x="1108.75" y="80" width="120" rx="4" ry="4" height="60" stroke="none"/>
        </g>
        <g text-rendering="geometricPrecision" stroke-miterlimit="1.45" shape-rendering="geometricPrecision" transform="matrix(1,0,0,1,-5,15)" stroke-linecap="butt">
          <rect x="1108.75" y="80" fill="none" width="120" rx="4" ry="4" height="60"/>
        </g>
        <g>
          <g text-rendering="geometricPrecision" stroke-miterlimit="1.45" shape-rendering="geometricPrecision" font-family="'David'" transform="matrix(1,0,0,1,-5,15)" stroke-linecap="butt">
            <text x="1132.2285" xml:space="preserve" y="107.0117" stroke="none">מעגלים ומערכות</text>
            <text x="1147.1729" xml:space="preserve" y="118.8184" stroke="none">ליניאריות</text>
          </g>
        </g>
      </a>
    </g>
    <g id="y.node.15">
      <a target="_blank" xlink:type="simple" xlink:href="https://ims.tau.ac.il/tal/kr/search_l.aspx?course_num=05123526&amp;year=2025&amp;lang=HE" xlink:show="new">
        <g fill="rgb(255,204,0)" text-rendering="geometricPrecision" shape-rendering="geometricPrecision" transform="matrix(1,0,0,1,-5,15)" stroke="rgb(255,204,0)">
          <rect x="471" y="283" width="120" rx="4" ry="4" height="60" stroke="none"/>
        </g>
        <g text-rendering="geometricPrecision" stroke-miterlimit="1.45" shape-rendering="geometricPrecision" transform="matrix(1,0,0,1,-5,15)" stroke-linecap="butt">
          <rect x="471" y="283" fill="none" width="120" rx="4" ry="4" height="60"/>
        </g>
        <g>
          <g text-rendering="geometricPrecision" stroke-miterlimit="1.45" shape-rendering="geometricPrecision" font-family="'David'" transform="matrix(1,0,0,1,-5,15)" stroke-linecap="butt">
            <text x="500.9531" xml:space="preserve" y="310.0117" stroke="none">תמסורת גלים</text>
            <text x="492.8203" xml:space="preserve" y="321.8184" stroke="none">ומערכות מפולגות</text>
          </g>
        </g>
      </a>
    </g>
    <g id="y.edge.2">
      <g text-rendering="geometricPrecision" stroke-miterlimit="1.45" shape-rendering="geometricPrecision" transform="matrix(1,0,0,1,-5,15)" stroke-linecap="butt">
        <path fill="none" d="M621 220 L621 235.5 L230 235.5 L230 274.9536"/>
        <path d="M230 282.9536 L235 270.9536 L230 273.9536 L225 270.9536 Z" stroke="none"/>
      </g>
    </g>
    <g id="y.edge.3">
      <g text-rendering="geometricPrecision" stroke-miterlimit="1.45" shape-rendering="geometricPrecision" transform="matrix(1,0,0,1,-5,15)" stroke-linecap="butt">
        <path fill="none" d="M681 220 L681 274.9692"/>
        <path d="M681 282.9692 L686 270.9692 L681 273.9692 L676 270.9692 Z" stroke="none"/>
      </g>
    </g>
    <g id="y.edge.4">
      <g text-rendering="geometricPrecision" stroke-miterlimit="1.45" shape-rendering="geometricPrecision" transform="matrix(1,0,0,1,-5,15)" stroke-linecap="butt">
        <path fill="none" d="M721 220 L721 235.5 L981 235.5 L981 274.9536"/>
        <path d="M981 282.9536 L986 270.9536 L981 273.9536 L976 270.9536 Z" stroke="none"/>
      </g>
    </g>
    <g id="y.edge.5">
      <g text-rendering="geometricPrecision" stroke-miterlimit="1.45" shape-rendering="geometricPrecision" transform="matrix(1,0,0,1,-5,15)" stroke-linecap="butt">
        <path fill="none" d="M641 220 L641 251.5 L380 251.5 L380 274.9692"/>
        <path d="M380 282.9692 L385 270.9692 L380 273.9692 L375 270.9692 Z" stroke="none"/>
      </g>
    </g>
    <g id="y.edge.9">
      <g text-rendering="geometricPrecision" stroke-miterlimit="1.45" shape-rendering="geometricPrecision" transform="matrix(1,0,0,1,-5,15)" stroke-linecap="butt">
        <path fill="none" d="M661 220 L661 267.5 L455.5 267.5 L455.5 358.5 L431 358.5 L431 381.9692"/>
        <path d="M431 389.9692 L436 377.9692 L431 380.9692 L426 377.9692 Z" stroke="none"/>
      </g>
    </g>
    <g id="y.edge.11">
      <g text-rendering="geometricPrecision" stroke-miterlimit="1.45" shape-rendering="geometricPrecision" transform="matrix(1,0,0,1,-5,15)" stroke-linecap="butt">
        <path fill="none" d="M701 220 L701 251.5 L831 251.5 L831 274.9692"/>
        <path d="M831 282.9692 L836 270.9692 L831 273.9692 L826 270.9692 Z" stroke="none"/>
      </g>
    </g>
    <g id="y.edge.0">
      <g text-rendering="geometricPrecision" stroke-miterlimit="1.45" shape-rendering="geometricPrecision" transform="matrix(1,0,0,1,-5,15)" stroke-linecap="butt">
        <path fill="none" d="M1288.75 140 L1288.75 155.5 L1281 155.5 L1281 274.9689"/>
        <path d="M1281 282.9689 L1286 270.9689 L1281 273.9689 L1276 270.9689 Z" stroke="none"/>
      </g>
    </g>
    <g id="y.edge.7">
      <g text-rendering="geometricPrecision" stroke-miterlimit="1.45" shape-rendering="geometricPrecision" transform="matrix(1,0,0,1,-5,15)" stroke-linecap="butt">
        <path fill="none" d="M1348.75 140 L1348.75 155.5 L1356.5 155.5 L1356.5 381.9714"/>
        <path d="M1356.5 389.9714 L1361.5 377.9714 L1356.5 380.9714 L1351.5 377.9714 Z" stroke="none"/>
      </g>
    </g>
    <g id="y.edge.1">
      <g text-rendering="geometricPrecision" stroke-miterlimit="1.45" shape-rendering="geometricPrecision" transform="matrix(1,0,0,1,-5,15)" stroke-linecap="butt">
        <path fill="none" d="M1093.25 60 L1093.25 205.5 L1101 205.5 L1101 274.9622"/>
        <path d="M1101 282.9622 L1106 270.9622 L1101 273.9622 L1096 270.9622 Z" stroke="none"/>
      </g>
    </g>
    <g id="y.edge.12">
      <g text-rendering="geometricPrecision" stroke-miterlimit="1.45" shape-rendering="geometricPrecision" transform="matrix(1,0,0,1,-5,15)" stroke-linecap="butt">
        <path fill="none" d="M1168.75 140 L1168.75 205.5 L1161 205.5 L1161 274.9622"/>
        <path d="M1161 282.9622 L1166 270.9622 L1161 273.9622 L1156 270.9622 Z" stroke="none"/>
      </g>
    </g>
    <g id="y.edge.6">
      <g text-rendering="geometricPrecision" stroke-miterlimit="1.45" shape-rendering="geometricPrecision" transform="matrix(1,0,0,1,-5,15)" stroke-linecap="butt">
        <path fill="none" d="M571 343 L571 358.5 L1296.5 358.5 L1296.5 381.9692"/>
        <path d="M1296.5 389.9692 L1301.5 377.9692 L1296.5 380.9692 L1291.5 377.9692 Z" stroke="none"/>
      </g>
    </g>
    <g id="y.edge.8">
      <g text-rendering="geometricPrecision" stroke-miterlimit="1.45" shape-rendering="geometricPrecision" transform="matrix(1,0,0,1,-5,15)" stroke-linecap="butt">
        <path fill="none" d="M491 343 L491 381.9541"/>
        <path d="M491 389.9541 L496 377.9541 L491 380.9541 L486 377.9541 Z" stroke="none"/>
      </g>
    </g>
    <g id="y.edge.10">
      <g text-rendering="geometricPrecision" stroke-miterlimit="1.45" shape-rendering="geometricPrecision" transform="matrix(1,0,0,1,-5,15)" stroke-linecap="butt">
        <path fill="none" d="M531 343 L531 374.5 L611 374.5 L611 381.9697"/>
        <path d="M611 389.9697 L616 377.9697 L611 380.9697 L606 377.9697 Z" stroke="none"/>
      </g>
    </g>
  </g>
</svg>
