<?xml version="1.0" encoding="UTF-8"?><svg xmlns="http://www.w3.org/2000/svg" xmlns:xlink="http://www.w3.org/1999/xlink" fill-opacity="1" color-rendering="auto" color-interpolation="auto" text-rendering="auto" stroke="black" stroke-linecap="square" width="722" stroke-miterlimit="10" shape-rendering="auto" stroke-opacity="1" fill="black" stroke-dasharray="none" font-weight="normal" stroke-width="1" height="641" font-family="'Dialog'" font-style="normal" stroke-linejoin="miter" font-size="12px" stroke-dashoffset="0" image-rendering="auto">
  <!--Generated by ySVG 2.6-->
  <defs id="genericDefs"/>
  <g>
    <defs id="defs1">
      <linearGradient x1="286.5" gradientUnits="userSpaceOnUse" x2="366.5" y1="353" y2="353" id="linearGradient1" spreadMethod="reflect">
        <stop stop-opacity="1" stop-color="rgb(44,160,44)" offset="0%"/>
        <stop stop-opacity="1" stop-color="rgb(42,248,167)" offset="100%"/>
      </linearGradient>
      <linearGradient x1="436.5" gradientUnits="userSpaceOnUse" x2="516.5" y1="353" y2="353" id="linearGradient2" spreadMethod="reflect">
        <stop stop-opacity="1" stop-color="rgb(44,160,44)" offset="0%"/>
        <stop stop-opacity="1" stop-color="rgb(42,248,167)" offset="100%"/>
      </linearGradient>
      <clipPath clipPathUnits="userSpaceOnUse" id="clipPath1">
        <path d="M0 0 L722 0 L722 641 L0 641 L0 0 Z"/>
      </clipPath>
      <clipPath clipPathUnits="userSpaceOnUse" id="clipPath2">
        <path d="M5 -15 L727 -15 L727 626 L5 626 L5 -15 Z"/>
      </clipPath>
    </defs>
    <g fill="white" text-rendering="geometricPrecision" shape-rendering="geometricPrecision" transform="translate(-5,15)" stroke="white">
      <rect x="5" width="722" height="641" y="-15" clip-path="url(#clipPath2)" stroke="none"/>
    </g>
    <g id="y.node.0">
      <a target="_blank" xlink:type="simple" xlink:href="https://ims.tau.ac.il/tal/kr/search_l.aspx?course_num=05091815&amp;year=2025&amp;lang=HE" xlink:show="new">
        <g fill="rgb(42,248,167)" text-rendering="geometricPrecision" shape-rendering="geometricPrecision" transform="matrix(1,0,0,1,-5,15)" stroke="rgb(42,248,167)">
          <rect x="546.5" y="353" width="120" rx="4" ry="4" height="60" stroke="none"/>
        </g>
        <g text-rendering="geometricPrecision" stroke-miterlimit="1.45" shape-rendering="geometricPrecision" transform="matrix(1,0,0,1,-5,15)" stroke-linecap="butt">
          <rect x="546.5" y="353" fill="none" width="120" rx="4" ry="4" height="60"/>
        </g>
        <g>
          <g text-rendering="geometricPrecision" stroke-miterlimit="1.45" shape-rendering="geometricPrecision" font-family="'David'" transform="matrix(1,0,0,1,-5,15)" stroke-linecap="butt">
            <text x="556.209" xml:space="preserve" y="385.915" stroke="none">כימיה בסיסית להנדסה</text>
          </g>
        </g>
      </a>
    </g>
    <g id="y.node.1">
      <a target="_blank" xlink:type="simple" xlink:href="https://ims.tau.ac.il/tal/kr/search_l.aspx?course_num=05811111&amp;year=2025&amp;lang=HE" xlink:show="new">
        <g fill="rgb(42,248,167)" text-rendering="geometricPrecision" shape-rendering="geometricPrecision" transform="matrix(1,0,0,1,-5,15)" stroke="rgb(42,248,167)">
          <rect x="532" y="444" width="120" rx="4" ry="4" height="60" stroke="none"/>
        </g>
        <g text-rendering="geometricPrecision" stroke-miterlimit="1.45" shape-rendering="geometricPrecision" transform="matrix(1,0,0,1,-5,15)" stroke-linecap="butt">
          <rect x="532" y="444" fill="none" width="120" rx="4" ry="4" height="60"/>
        </g>
        <g>
          <g text-rendering="geometricPrecision" stroke-miterlimit="1.45" shape-rendering="geometricPrecision" font-family="'David'" transform="matrix(1,0,0,1,-5,15)" stroke-linecap="butt">
            <text x="549.5078" xml:space="preserve" y="471.0117" stroke="none">מבוא למדע והנדסה</text>
            <text x="566.1045" xml:space="preserve" y="482.8184" stroke="none"> של חומרים</text>
          </g>
        </g>
      </a>
    </g>
    <g id="y.node.2">
      <a target="_blank" xlink:type="simple" xlink:href="https://ims.tau.ac.il/tal/kr/search_l.aspx?course_num=05813122&amp;year=2025&amp;lang=HE" xlink:show="new">
        <g fill="rgb(42,248,167)" text-rendering="geometricPrecision" shape-rendering="geometricPrecision" transform="matrix(1,0,0,1,-5,15)" stroke="rgb(42,248,167)">
          <rect x="95.5" y="551" width="120" rx="4" ry="4" height="60" stroke="none"/>
        </g>
        <g text-rendering="geometricPrecision" stroke-miterlimit="1.45" shape-rendering="geometricPrecision" transform="matrix(1,0,0,1,-5,15)" stroke-linecap="butt">
          <rect x="95.5" y="551" fill="none" width="120" rx="4" ry="4" height="60"/>
        </g>
        <g>
          <g text-rendering="geometricPrecision" stroke-miterlimit="1.45" shape-rendering="geometricPrecision" font-family="'David'" transform="matrix(1,0,0,1,-5,15)" stroke-linecap="butt">
            <text x="114.335" xml:space="preserve" y="572.1084" stroke="none">מבוא למדע חישובי</text>
            <text x="134.4209" xml:space="preserve" y="583.915" stroke="none"> בחומרים</text>
            <text x="154.1729" xml:space="preserve" y="595.7217" stroke="none"> </text>
          </g>
        </g>
      </a>
    </g>
    <g id="y.node.3">
      <a target="_blank" xlink:type="simple" xlink:href="https://ims.tau.ac.il/tal/kr/search_l.aspx?course_num=05814321&amp;year=2025&amp;lang=HE" xlink:show="new">
        <g fill="rgb(42,248,167)" text-rendering="geometricPrecision" shape-rendering="geometricPrecision" transform="matrix(1,0,0,1,-5,15)" stroke="rgb(42,248,167)">
          <rect x="245.5" y="551" width="120" rx="4" ry="4" height="60" stroke="none"/>
        </g>
        <g text-rendering="geometricPrecision" stroke-miterlimit="1.45" shape-rendering="geometricPrecision" transform="matrix(1,0,0,1,-5,15)" stroke-linecap="butt">
          <rect x="245.5" y="551" fill="none" width="120" rx="4" ry="4" height="60"/>
        </g>
        <g>
          <g text-rendering="geometricPrecision" stroke-miterlimit="1.45" shape-rendering="geometricPrecision" font-family="'David'" transform="matrix(1,0,0,1,-5,15)" stroke-linecap="butt">
            <text x="269.1484" xml:space="preserve" y="583.915" stroke="none">חומרים מגנטיים</text>
          </g>
        </g>
      </a>
    </g>
    <g id="y.node.4">
      <a target="_blank" xlink:type="simple" xlink:href="https://ims.tau.ac.il/tal/kr/search_l.aspx?course_num=05815312&amp;year=2025&amp;lang=HE" xlink:show="new">
        <g fill="rgb(42,248,167)" text-rendering="geometricPrecision" shape-rendering="geometricPrecision" transform="matrix(1,0,0,1,-5,15)" stroke="rgb(42,248,167)">
          <rect x="592" y="551" width="120" rx="4" ry="4" height="60" stroke="none"/>
        </g>
        <g text-rendering="geometricPrecision" stroke-miterlimit="1.45" shape-rendering="geometricPrecision" transform="matrix(1,0,0,1,-5,15)" stroke-linecap="butt">
          <rect x="592" y="551" fill="none" width="120" rx="4" ry="4" height="60"/>
        </g>
        <g>
          <g text-rendering="geometricPrecision" stroke-miterlimit="1.45" shape-rendering="geometricPrecision" font-family="'David'" transform="matrix(1,0,0,1,-5,15)" stroke-linecap="butt">
            <text x="618.6367" xml:space="preserve" y="583.915" stroke="none">חומרים חכמים</text>
          </g>
        </g>
      </a>
    </g>
    <g id="y.node.5">
      <a target="_blank" xlink:type="simple" xlink:href="https://ims.tau.ac.il/tal/kr/search_l.aspx?course_num=05091829&amp;year=2025&amp;lang=HE" xlink:show="new">
        <g fill="rgb(255,204,0)" text-rendering="geometricPrecision" shape-rendering="geometricPrecision" transform="matrix(1,0,0,1,-5,15)" stroke="rgb(255,204,0)">
          <rect x="434.25" y="80" width="120" rx="4" ry="4" height="60" stroke="none"/>
        </g>
        <g text-rendering="geometricPrecision" stroke-miterlimit="1.45" shape-rendering="geometricPrecision" transform="matrix(1,0,0,1,-5,15)" stroke-linecap="butt">
          <rect x="434.25" y="80" fill="none" width="120" rx="4" ry="4" height="60"/>
        </g>
        <g>
          <g text-rendering="geometricPrecision" stroke-miterlimit="1.45" shape-rendering="geometricPrecision" font-family="'David'" transform="matrix(1,0,0,1,-5,15)" stroke-linecap="butt">
            <text x="472.0049" xml:space="preserve" y="112.915" stroke="none">פיזיקה (2)</text>
          </g>
        </g>
      </a>
    </g>
    <g id="y.node.6">
      <a target="_blank" xlink:type="simple" xlink:href="https://ims.tau.ac.il/tal/kr/search_l.aspx?course_num=05091820&amp;year=2025&amp;lang=HE" xlink:show="new">
        <g fill="rgb(255,204,0)" text-rendering="geometricPrecision" shape-rendering="geometricPrecision" transform="matrix(1,0,0,1,-5,15)" stroke="rgb(255,204,0)">
          <rect x="20" y="0" width="120" rx="4" ry="4" height="60" stroke="none"/>
        </g>
        <g text-rendering="geometricPrecision" stroke-miterlimit="1.45" shape-rendering="geometricPrecision" transform="matrix(1,0,0,1,-5,15)" stroke-linecap="butt">
          <rect x="20" y="0" fill="none" width="120" rx="4" ry="4" height="60"/>
        </g>
        <g>
          <g text-rendering="geometricPrecision" stroke-miterlimit="1.45" shape-rendering="geometricPrecision" font-family="'David'" transform="matrix(1,0,0,1,-5,15)" stroke-linecap="butt">
            <text x="66.5557" xml:space="preserve" y="32.915" stroke="none">פייתון</text>
          </g>
        </g>
      </a>
    </g>
    <g id="y.node.7">
      <a target="_blank" xlink:type="simple" xlink:href="https://ims.tau.ac.il/tal/kr/search_l.aspx?course_num=05813121&amp;year=2025&amp;lang=HE" xlink:show="new">
        <g fill="rgb(42,248,167)" text-rendering="geometricPrecision" shape-rendering="geometricPrecision" transform="matrix(1,0,0,1,-5,15)" stroke="rgb(42,248,167)">
          <rect x="125.5" y="444" width="120" rx="4" ry="4" height="60" stroke="none"/>
        </g>
        <g text-rendering="geometricPrecision" stroke-miterlimit="1.45" shape-rendering="geometricPrecision" transform="matrix(1,0,0,1,-5,15)" stroke-linecap="butt">
          <rect x="125.5" y="444" fill="none" width="120" rx="4" ry="4" height="60"/>
        </g>
        <g>
          <g text-rendering="geometricPrecision" stroke-miterlimit="1.45" shape-rendering="geometricPrecision" font-family="'David'" transform="matrix(1,0,0,1,-5,15)" stroke-linecap="butt">
            <text x="143.0049" xml:space="preserve" y="476.915" stroke="none">פיסיקה של חומרים</text>
          </g>
        </g>
      </a>
    </g>
    <g id="y.node.8">
      <a target="_blank" xlink:type="simple" xlink:href="https://ims.tau.ac.il/tal/kr/search_l.aspx?course_num=05122830&amp;year=2025&amp;lang=HE" xlink:show="new">
        <g fill="rgb(255,204,0)" text-rendering="geometricPrecision" shape-rendering="geometricPrecision" transform="matrix(1,0,0,1,-5,15)" stroke="rgb(255,204,0)">
          <rect x="291.5" y="171" width="120" rx="4" ry="4" height="60" stroke="none"/>
        </g>
        <g text-rendering="geometricPrecision" stroke-miterlimit="1.45" shape-rendering="geometricPrecision" transform="matrix(1,0,0,1,-5,15)" stroke-linecap="butt">
          <rect x="291.5" y="171" fill="none" width="120" rx="4" ry="4" height="60"/>
        </g>
        <g>
          <g text-rendering="geometricPrecision" stroke-miterlimit="1.45" shape-rendering="geometricPrecision" font-family="'David'" transform="matrix(1,0,0,1,-5,15)" stroke-linecap="butt">
            <text x="313.6543" xml:space="preserve" y="198.0117" stroke="none">פיזיקה קוואנטית</text>
            <text x="327.2656" xml:space="preserve" y="209.8184" stroke="none">ומצב מוצק</text>
          </g>
        </g>
      </a>
    </g>
    <g id="y.node.9">
      <a target="_blank" xlink:type="simple" xlink:href="https://ims.tau.ac.il/tal/kr/search_l.aspx?course_num=05123526&amp;year=2025&amp;lang=HE" xlink:show="new">
        <g fill="rgb(255,204,0)" text-rendering="geometricPrecision" shape-rendering="geometricPrecision" transform="matrix(1,0,0,1,-5,15)" stroke="rgb(255,204,0)">
          <rect x="95.5" y="353" width="120" rx="4" ry="4" height="60" stroke="none"/>
        </g>
        <g text-rendering="geometricPrecision" stroke-miterlimit="1.45" shape-rendering="geometricPrecision" transform="matrix(1,0,0,1,-5,15)" stroke-linecap="butt">
          <rect x="95.5" y="353" fill="none" width="120" rx="4" ry="4" height="60"/>
        </g>
        <g>
          <g text-rendering="geometricPrecision" stroke-miterlimit="1.45" shape-rendering="geometricPrecision" font-family="'David'" transform="matrix(1,0,0,1,-5,15)" stroke-linecap="butt">
            <text x="125.4531" xml:space="preserve" y="380.0117" stroke="none">תמסורת גלים</text>
            <text x="117.3203" xml:space="preserve" y="391.8184" stroke="none">ומערכות מפולגות</text>
          </g>
        </g>
      </a>
    </g>
    <g id="y.node.10">
      <a target="_blank" xlink:type="simple" xlink:href="https://ims.tau.ac.il/tal/kr/search_l.aspx?course_num=05106701&amp;year=2025&amp;lang=HE" xlink:show="new">
        <g fill="url(#linearGradient1)" text-rendering="geometricPrecision" shape-rendering="geometricPrecision" transform="matrix(1,0,0,1,-5,15)" stroke="url(#linearGradient1)">
          <rect x="246.5" y="353" width="120" rx="4" ry="4" height="60" stroke="none"/>
        </g>
        <g stroke-linecap="butt" transform="matrix(1,0,0,1,-5,15)" fill="fuchsia" text-rendering="geometricPrecision" shape-rendering="geometricPrecision" stroke-dasharray="30,10" stroke="fuchsia" stroke-width="5" stroke-miterlimit="1.45">
          <rect x="246.5" y="353" fill="none" width="120" rx="4" ry="4" height="60"/>
        </g>
        <g>
          <g text-rendering="geometricPrecision" stroke-miterlimit="1.45" shape-rendering="geometricPrecision" font-family="'David'" transform="matrix(1,0,0,1,-5,15)" stroke-linecap="butt">
            <text x="262.0098" xml:space="preserve" y="380.0117" stroke="none">פיזיקה מתקדמת של</text>
            <text x="269.9814" xml:space="preserve" y="391.8184" stroke="none"> מוליכים למחצה</text>
          </g>
        </g>
      </a>
    </g>
    <g id="y.node.11">
      <a target="_blank" xlink:type="simple" xlink:href="https://ims.tau.ac.il/tal/kr/search_l.aspx?course_num=05124700&amp;year=2025&amp;lang=HE" xlink:show="new">
        <g fill="url(#linearGradient2)" text-rendering="geometricPrecision" shape-rendering="geometricPrecision" transform="matrix(1,0,0,1,-5,15)" stroke="url(#linearGradient2)">
          <rect x="396.5" y="353" width="120" rx="4" ry="4" height="60" stroke="none"/>
        </g>
        <g text-rendering="geometricPrecision" stroke-miterlimit="1.45" shape-rendering="geometricPrecision" transform="matrix(1,0,0,1,-5,15)" stroke-linecap="butt">
          <rect x="396.5" y="353" fill="none" width="120" rx="4" ry="4" height="60"/>
        </g>
        <g>
          <g text-rendering="geometricPrecision" stroke-miterlimit="1.45" shape-rendering="geometricPrecision" font-family="'David'" transform="matrix(1,0,0,1,-5,15)" stroke-linecap="butt">
            <text x="418.1592" xml:space="preserve" y="380.0117" stroke="none">טכנולוגיות מיקרו</text>
            <text x="418.3262" xml:space="preserve" y="391.8184" stroke="none"> וננו אלקטרוניקה</text>
          </g>
        </g>
      </a>
    </g>
    <g id="y.node.12">
      <a target="_blank" xlink:type="simple" xlink:href="https://ims.tau.ac.il/tal/kr/search_l.aspx?course_num=05122508&amp;year=2025&amp;lang=HE" xlink:show="new">
        <g fill="rgb(255,204,0)" text-rendering="geometricPrecision" shape-rendering="geometricPrecision" transform="matrix(1,0,0,1,-5,15)" stroke="rgb(255,204,0)">
          <rect x="321.5" y="262" width="120" rx="4" ry="4" height="60" stroke="none"/>
        </g>
        <g text-rendering="geometricPrecision" stroke-miterlimit="1.45" shape-rendering="geometricPrecision" transform="matrix(1,0,0,1,-5,15)" stroke-linecap="butt">
          <rect x="321.5" y="262" fill="none" width="120" rx="4" ry="4" height="60"/>
        </g>
        <g>
          <g text-rendering="geometricPrecision" stroke-miterlimit="1.45" shape-rendering="geometricPrecision" font-family="'David'" transform="matrix(1,0,0,1,-5,15)" stroke-linecap="butt">
            <text x="363.9043" xml:space="preserve" y="289.0117" stroke="none">התקנים</text>
            <text x="353.2812" xml:space="preserve" y="300.8184" stroke="none"> אלקטרוניים</text>
          </g>
        </g>
      </a>
    </g>
    <g id="y.edge.2">
      <g text-rendering="geometricPrecision" stroke-miterlimit="1.45" shape-rendering="geometricPrecision" transform="matrix(1,0,0,1,-5,15)" stroke-linecap="butt">
        <path fill="none" d="M606.5 413 L606.5 428.5 L592 428.5 L592 435.9697"/>
        <path d="M592 443.9697 L597 431.9697 L592 434.9697 L587 431.9697 Z" stroke="none"/>
      </g>
    </g>
    <g id="y.edge.1">
      <g text-rendering="geometricPrecision" stroke-miterlimit="1.45" shape-rendering="geometricPrecision" transform="matrix(1,0,0,1,-5,15)" stroke-linecap="butt">
        <path fill="none" d="M562 504 L562 519.5 L195.5 519.5 L195.5 542.9692"/>
        <path d="M195.5 550.9692 L200.5 538.9692 L195.5 541.9692 L190.5 538.9692 Z" stroke="none"/>
      </g>
    </g>
    <g id="y.edge.0">
      <g text-rendering="geometricPrecision" stroke-miterlimit="1.45" shape-rendering="geometricPrecision" transform="matrix(1,0,0,1,-5,15)" stroke-linecap="butt">
        <path fill="none" d="M622 504 L622 542.9541"/>
        <path d="M622 550.9541 L627 538.9541 L622 541.9541 L617 538.9541 Z" stroke="none"/>
      </g>
    </g>
    <g id="y.edge.3">
      <g text-rendering="geometricPrecision" stroke-miterlimit="1.45" shape-rendering="geometricPrecision" transform="matrix(1,0,0,1,-5,15)" stroke-linecap="butt">
        <path fill="none" d="M524.25 140 L524.25 155.5 L682 155.5 L682 542.9517"/>
        <path d="M682 550.9517 L687 538.9517 L682 541.9517 L677 538.9517 Z" stroke="none"/>
      </g>
    </g>
    <g id="y.edge.4">
      <g text-rendering="geometricPrecision" stroke-miterlimit="1.45" shape-rendering="geometricPrecision" transform="matrix(1,0,0,1,-5,15)" stroke-linecap="butt">
        <path fill="none" d="M80 60 L80 519.5 L115.5 519.5 L115.5 542.9692"/>
        <path d="M115.5 550.9692 L120.5 538.9692 L115.5 541.9692 L110.5 538.9692 Z" stroke="none"/>
      </g>
    </g>
    <g id="y.edge.5">
      <g text-rendering="geometricPrecision" stroke-miterlimit="1.45" shape-rendering="geometricPrecision" transform="matrix(1,0,0,1,-5,15)" stroke-linecap="butt">
        <path fill="none" d="M155.5 504 L155.5 542.9541"/>
        <path d="M155.5 550.9541 L160.5 538.9541 L155.5 541.9541 L150.5 538.9541 Z" stroke="none"/>
      </g>
    </g>
    <g id="y.edge.8">
      <g text-rendering="geometricPrecision" stroke-miterlimit="1.45" shape-rendering="geometricPrecision" transform="matrix(1,0,0,1,-5,15)" stroke-linecap="butt">
        <path fill="none" d="M215.5 504 L215.5 535.5 L305.5 535.5 L305.5 542.9697"/>
        <path d="M305.5 550.9697 L310.5 538.9697 L305.5 541.9697 L300.5 538.9697 Z" stroke="none"/>
      </g>
    </g>
    <g id="y.edge.7">
      <g text-rendering="geometricPrecision" stroke-miterlimit="1.45" shape-rendering="geometricPrecision" transform="matrix(1,0,0,1,-5,15)" stroke-linecap="butt">
        <path fill="none" d="M464.25 140 L464.25 155.5 L351.5 155.5 L351.5 162.9697"/>
        <path d="M351.5 170.9697 L356.5 158.9697 L351.5 161.9697 L346.5 158.9697 Z" stroke="none"/>
      </g>
    </g>
    <g id="y.edge.6">
      <g text-rendering="geometricPrecision" stroke-miterlimit="1.45" shape-rendering="geometricPrecision" transform="matrix(1,0,0,1,-5,15)" stroke-linecap="butt">
        <path fill="none" d="M321.5 231 L321.5 246.5 L231 246.5 L231 428.5 L215.5 428.5 L215.5 435.9697"/>
        <path d="M215.5 443.9697 L220.5 431.9697 L215.5 434.9697 L210.5 431.9697 Z" stroke="none"/>
      </g>
    </g>
    <g id="y.edge.9">
      <g text-rendering="geometricPrecision" stroke-miterlimit="1.45" shape-rendering="geometricPrecision" transform="matrix(1,0,0,1,-5,15)" stroke-linecap="butt">
        <path fill="none" d="M155.5 413 L155.5 435.9697"/>
        <path d="M155.5 443.9697 L160.5 431.9697 L155.5 434.9697 L150.5 431.9697 Z" stroke="none"/>
      </g>
    </g>
    <g id="y.edge.10">
      <g text-rendering="geometricPrecision" stroke-miterlimit="1.45" shape-rendering="geometricPrecision" transform="matrix(1,0,0,1,-5,15)" stroke-linecap="butt">
        <path fill="none" d="M381.5 231 L381.5 253.9697"/>
        <path d="M381.5 261.9697 L386.5 249.9697 L381.5 252.9697 L376.5 249.9697 Z" stroke="none"/>
      </g>
    </g>
    <g id="y.edge.11">
      <g text-rendering="geometricPrecision" stroke-miterlimit="1.45" shape-rendering="geometricPrecision" transform="matrix(1,0,0,1,-5,15)" stroke-linecap="butt">
        <path fill="none" d="M351.5 322 L351.5 337.5 L306.5 337.5 L306.5 344.9697"/>
        <path d="M306.5 352.9697 L311.5 340.9697 L306.5 343.9697 L301.5 340.9697 Z" stroke="none"/>
      </g>
    </g>
    <g id="y.edge.12">
      <g text-rendering="geometricPrecision" stroke-miterlimit="1.45" shape-rendering="geometricPrecision" transform="matrix(1,0,0,1,-5,15)" stroke-linecap="butt">
        <path fill="none" d="M411.5 322 L411.5 337.5 L456.5 337.5 L456.5 344.9697"/>
        <path d="M456.5 352.9697 L461.5 340.9697 L456.5 343.9697 L451.5 340.9697 Z" stroke="none"/>
      </g>
    </g>
  </g>
</svg>
