<?xml version="1.0" encoding="UTF-8"?><svg xmlns="http://www.w3.org/2000/svg" xmlns:xlink="http://www.w3.org/1999/xlink" fill-opacity="1" color-rendering="auto" color-interpolation="auto" text-rendering="auto" stroke="black" stroke-linecap="square" width="1050" stroke-miterlimit="10" shape-rendering="auto" stroke-opacity="1" fill="black" stroke-dasharray="none" font-weight="normal" stroke-width="1" height="480" font-family="'Dialog'" font-style="normal" stroke-linejoin="miter" font-size="12px" stroke-dashoffset="0" image-rendering="auto">
  <!--Generated by ySVG 2.6-->
  <defs id="genericDefs"/>
  <g>
    <defs id="defs1">
      <linearGradient x1="707.25" gradientUnits="userSpaceOnUse" x2="787.25" y1="187" y2="187" id="linearGradient1" spreadMethod="reflect">
        <stop stop-opacity="1" stop-color="rgb(255,251,139)" offset="0%"/>
        <stop stop-opacity="1" stop-color="rgb(44,160,44)" offset="100%"/>
      </linearGradient>
      <linearGradient x1="960" gradientUnits="userSpaceOnUse" x2="1040" y1="310" y2="310" id="linearGradient2" spreadMethod="reflect">
        <stop stop-opacity="1" stop-color="rgb(140,86,75)" offset="0%"/>
        <stop stop-opacity="1" stop-color="rgb(255,251,139)" offset="100%"/>
      </linearGradient>
      <clipPath clipPathUnits="userSpaceOnUse" id="clipPath1">
        <path d="M0 0 L1050 0 L1050 480 L0 480 L0 0 Z"/>
      </clipPath>
      <clipPath clipPathUnits="userSpaceOnUse" id="clipPath2">
        <path d="M5 -15 L1055 -15 L1055 465 L5 465 L5 -15 Z"/>
      </clipPath>
    </defs>
    <g fill="white" text-rendering="geometricPrecision" shape-rendering="geometricPrecision" transform="translate(-5,15)" stroke="white">
      <rect x="5" width="1050" height="480" y="-15" clip-path="url(#clipPath2)" stroke="none"/>
    </g>
    <g id="y.node.0">
      <a target="_blank" xlink:type="simple" xlink:href="https://ims.tau.ac.il/tal/kr/search_l.aspx?course_num=05124631&amp;year=2025&amp;lang=HE" xlink:show="new">
        <g fill="url(#linearGradient1)" text-rendering="geometricPrecision" shape-rendering="geometricPrecision" transform="matrix(1,0,0,1,-5,15)" stroke="url(#linearGradient1)">
          <rect x="667.25" y="187" width="120" rx="4" ry="4" height="60" stroke="none"/>
        </g>
        <g text-rendering="geometricPrecision" stroke-miterlimit="1.45" shape-rendering="geometricPrecision" transform="matrix(1,0,0,1,-5,15)" stroke-linecap="butt">
          <rect x="667.25" y="187" fill="none" width="120" rx="4" ry="4" height="60"/>
        </g>
        <g>
          <g text-rendering="geometricPrecision" stroke-miterlimit="1.45" shape-rendering="geometricPrecision" font-family="'David'" transform="matrix(1,0,0,1,-5,15)" stroke-linecap="butt">
            <text x="682.5986" xml:space="preserve" y="214.0117" stroke="none">המרה פוטו-וולטאית</text>
            <text x="685.584" xml:space="preserve" y="225.8184" stroke="none"> של אנרגיית השמש</text>
          </g>
        </g>
      </a>
    </g>
    <g id="y.node.1">
      <a target="_blank" xlink:type="simple" xlink:href="https://ims.tau.ac.il/tal/kr/search_l.aspx?course_num=05122508&amp;year=2025&amp;lang=HE" xlink:show="new">
        <g fill="rgb(255,204,0)" text-rendering="geometricPrecision" shape-rendering="geometricPrecision" transform="matrix(1,0,0,1,-5,15)" stroke="rgb(255,204,0)">
          <rect x="667.25" y="107" width="120" rx="4" ry="4" height="60" stroke="none"/>
        </g>
        <g text-rendering="geometricPrecision" stroke-miterlimit="1.45" shape-rendering="geometricPrecision" transform="matrix(1,0,0,1,-5,15)" stroke-linecap="butt">
          <rect x="667.25" y="107" fill="none" width="120" rx="4" ry="4" height="60"/>
        </g>
        <g>
          <g text-rendering="geometricPrecision" stroke-miterlimit="1.45" shape-rendering="geometricPrecision" font-family="'David'" transform="matrix(1,0,0,1,-5,15)" stroke-linecap="butt">
            <text x="709.6543" xml:space="preserve" y="134.0117" stroke="none">התקנים</text>
            <text x="699.0312" xml:space="preserve" y="145.8184" stroke="none"> אלקטרוניים</text>
          </g>
        </g>
      </a>
    </g>
    <g id="y.node.2">
      <a target="_blank" xlink:type="simple" xlink:href="https://ims.tau.ac.il/tal/kr/search_l.aspx?course_num=05123571&amp;year=2025&amp;lang=HE" xlink:show="new">
        <g fill="rgb(255,251,139)" text-rendering="geometricPrecision" shape-rendering="geometricPrecision" transform="matrix(1,0,0,1,-5,15)" stroke="rgb(255,251,139)">
          <rect x="460" y="187" width="120" rx="4" ry="4" height="60" stroke="none"/>
        </g>
        <g text-rendering="geometricPrecision" stroke-miterlimit="1.45" shape-rendering="geometricPrecision" transform="matrix(1,0,0,1,-5,15)" stroke-linecap="butt">
          <rect x="460" y="187" fill="none" width="120" rx="4" ry="4" height="60"/>
        </g>
        <g>
          <g text-rendering="geometricPrecision" stroke-miterlimit="1.45" shape-rendering="geometricPrecision" font-family="'David'" transform="matrix(1,0,0,1,-5,15)" stroke-linecap="butt">
            <text x="490.29" xml:space="preserve" y="219.915" stroke="none">המרת אנרגיה</text>
          </g>
        </g>
      </a>
    </g>
    <g id="y.node.3">
      <a target="_blank" xlink:type="simple" xlink:href="https://ims.tau.ac.il/tal/kr/search_l.aspx?course_num=05122525&amp;year=2025&amp;lang=HE" xlink:show="new">
        <g fill="rgb(255,204,0)" text-rendering="geometricPrecision" shape-rendering="geometricPrecision" transform="matrix(1,0,0,1,-5,15)" stroke="rgb(255,204,0)">
          <rect x="460" y="107" width="120" rx="4" ry="4" height="60" stroke="none"/>
        </g>
        <g text-rendering="geometricPrecision" stroke-miterlimit="1.45" shape-rendering="geometricPrecision" transform="matrix(1,0,0,1,-5,15)" stroke-linecap="butt">
          <rect x="460" y="107" fill="none" width="120" rx="4" ry="4" height="60"/>
        </g>
        <g>
          <g text-rendering="geometricPrecision" stroke-miterlimit="1.45" shape-rendering="geometricPrecision" font-family="'David'" transform="matrix(1,0,0,1,-5,15)" stroke-linecap="butt">
            <text x="508.2139" xml:space="preserve" y="134.0117" stroke="none">שדות</text>
            <text x="484.1436" xml:space="preserve" y="145.8184" stroke="none">אלקטרומגנטיים</text>
          </g>
        </g>
      </a>
    </g>
    <g id="y.node.4">
      <a target="_blank" xlink:type="simple" xlink:href="https://ims.tau.ac.il/tal/kr/search_l.aspx?course_num=05122832&amp;year=2025&amp;lang=HE" xlink:show="new">
        <g fill="rgb(255,204,0)" text-rendering="geometricPrecision" shape-rendering="geometricPrecision" transform="matrix(1,0,0,1,-5,15)" stroke="rgb(255,204,0)">
          <rect x="555" y="0" width="120" rx="4" ry="4" height="60" stroke="none"/>
        </g>
        <g text-rendering="geometricPrecision" stroke-miterlimit="1.45" shape-rendering="geometricPrecision" transform="matrix(1,0,0,1,-5,15)" stroke-linecap="butt">
          <rect x="555" y="0" fill="none" width="120" rx="4" ry="4" height="60"/>
        </g>
        <g>
          <g text-rendering="geometricPrecision" stroke-miterlimit="1.45" shape-rendering="geometricPrecision" font-family="'David'" transform="matrix(1,0,0,1,-5,15)" stroke-linecap="butt">
            <text x="578.4785" xml:space="preserve" y="27.0117" stroke="none">מעגלים ומערכות</text>
            <text x="593.4229" xml:space="preserve" y="38.8184" stroke="none">ליניאריות</text>
          </g>
        </g>
      </a>
    </g>
    <g id="y.node.5">
      <a target="_blank" xlink:type="simple" xlink:href="https://ims.tau.ac.il/tal/kr/search_l.aspx?course_num=05124505&amp;year=2025&amp;lang=HE" xlink:show="new">
        <g fill="rgb(255,251,139)" text-rendering="geometricPrecision" shape-rendering="geometricPrecision" transform="matrix(1,0,0,1,-5,15)" stroke="rgb(255,251,139)">
          <rect x="170" y="310" width="120" rx="4" ry="4" height="60" stroke="none"/>
        </g>
        <g text-rendering="geometricPrecision" stroke-miterlimit="1.45" shape-rendering="geometricPrecision" transform="matrix(1,0,0,1,-5,15)" stroke-linecap="butt">
          <rect x="170" y="310" fill="none" width="120" rx="4" ry="4" height="60"/>
        </g>
        <g>
          <g text-rendering="geometricPrecision" stroke-miterlimit="1.45" shape-rendering="geometricPrecision" font-family="'David'" transform="matrix(1,0,0,1,-5,15)" stroke-linecap="butt">
            <text x="178.376" xml:space="preserve" y="337.0117" stroke="none">בעיות טכנו-כלכליות של</text>
            <text x="197.2988" xml:space="preserve" y="348.8184" stroke="none"> מערכות הספק</text>
          </g>
        </g>
      </a>
    </g>
    <g id="y.node.6">
      <a target="_blank" xlink:type="simple" xlink:href="https://ims.tau.ac.il/tal/kr/search_l.aspx?course_num=05124504&amp;year=2025&amp;lang=HE" xlink:show="new">
        <g fill="rgb(255,251,139)" text-rendering="geometricPrecision" shape-rendering="geometricPrecision" transform="matrix(1,0,0,1,-5,15)" stroke="rgb(255,251,139)">
          <rect x="170" y="390" width="120" rx="4" ry="4" height="60" stroke="none"/>
        </g>
        <g text-rendering="geometricPrecision" stroke-miterlimit="1.45" shape-rendering="geometricPrecision" transform="matrix(1,0,0,1,-5,15)" stroke-linecap="butt">
          <rect x="170" y="390" fill="none" width="120" rx="4" ry="4" height="60"/>
        </g>
        <g>
          <g text-rendering="geometricPrecision" stroke-miterlimit="1.45" shape-rendering="geometricPrecision" font-family="'David'" transform="matrix(1,0,0,1,-5,15)" stroke-linecap="butt">
            <text x="184.0156" xml:space="preserve" y="417.0117" stroke="none">תפעול מערכות הספק</text>
            <text x="184.8506" xml:space="preserve" y="428.8184" stroke="none"> בתנאים א-נורמליים</text>
          </g>
        </g>
      </a>
    </g>
    <g id="y.node.7">
      <a target="_blank" xlink:type="simple" xlink:href="https://ims.tau.ac.il/tal/kr/search_l.aspx?course_num=05123572&amp;year=2025&amp;lang=HE" xlink:show="new">
        <g fill="rgb(255,251,139)" text-rendering="geometricPrecision" shape-rendering="geometricPrecision" transform="matrix(1,0,0,1,-5,15)" stroke="rgb(255,251,139)">
          <rect x="320" y="310" width="120" rx="4" ry="4" height="60" stroke="none"/>
        </g>
        <g text-rendering="geometricPrecision" stroke-miterlimit="1.45" shape-rendering="geometricPrecision" transform="matrix(1,0,0,1,-5,15)" stroke-linecap="butt">
          <rect x="320" y="310" fill="none" width="120" rx="4" ry="4" height="60"/>
        </g>
        <g>
          <g text-rendering="geometricPrecision" stroke-miterlimit="1.45" shape-rendering="geometricPrecision" font-family="'David'" transform="matrix(1,0,0,1,-5,15)" stroke-linecap="butt">
            <text x="331.0361" xml:space="preserve" y="342.915" stroke="none">מעבדה בהמרת אנרגיה</text>
          </g>
        </g>
      </a>
    </g>
    <g id="y.node.8">
      <a target="_blank" xlink:type="simple" xlink:href="https://ims.tau.ac.il/tal/kr/search_l.aspx?course_num=05124502&amp;year=2025&amp;lang=HE" xlink:show="new">
        <g fill="rgb(255,251,139)" text-rendering="geometricPrecision" shape-rendering="geometricPrecision" transform="matrix(1,0,0,1,-5,15)" stroke="rgb(255,251,139)">
          <rect x="620" y="310" width="120" rx="4" ry="4" height="60" stroke="none"/>
        </g>
        <g text-rendering="geometricPrecision" stroke-miterlimit="1.45" shape-rendering="geometricPrecision" transform="matrix(1,0,0,1,-5,15)" stroke-linecap="butt">
          <rect x="620" y="310" fill="none" width="120" rx="4" ry="4" height="60"/>
        </g>
        <g>
          <g text-rendering="geometricPrecision" stroke-miterlimit="1.45" shape-rendering="geometricPrecision" font-family="'David'" transform="matrix(1,0,0,1,-5,15)" stroke-linecap="butt">
            <text x="629.8672" xml:space="preserve" y="342.915" stroke="none">הינע חשמלי של מנועים</text>
          </g>
        </g>
      </a>
    </g>
    <g id="y.node.9">
      <a target="_blank" xlink:type="simple" xlink:href="https://ims.tau.ac.il/tal/kr/search_l.aspx?course_num=05124506&amp;year=2025&amp;lang=HE" xlink:show="new">
        <g fill="rgb(255,251,139)" text-rendering="geometricPrecision" shape-rendering="geometricPrecision" transform="matrix(1,0,0,1,-5,15)" stroke="rgb(255,251,139)">
          <rect x="470" y="310" width="120" rx="4" ry="4" height="60" stroke="none"/>
        </g>
        <g text-rendering="geometricPrecision" stroke-miterlimit="1.45" shape-rendering="geometricPrecision" transform="matrix(1,0,0,1,-5,15)" stroke-linecap="butt">
          <rect x="470" y="310" fill="none" width="120" rx="4" ry="4" height="60"/>
        </g>
        <g>
          <g text-rendering="geometricPrecision" stroke-miterlimit="1.45" shape-rendering="geometricPrecision" font-family="'David'" transform="matrix(1,0,0,1,-5,15)" stroke-linecap="butt">
            <text x="487.3379" xml:space="preserve" y="342.915" stroke="none">אלקטרוניקת הספק</text>
          </g>
        </g>
      </a>
    </g>
    <g id="y.node.10">
      <a target="_blank" xlink:type="simple" xlink:href="https://ims.tau.ac.il/tal/kr/search_l.aspx?course_num=05124503&amp;year=2025&amp;lang=HE" xlink:show="new">
        <g fill="rgb(255,251,139)" text-rendering="geometricPrecision" shape-rendering="geometricPrecision" transform="matrix(1,0,0,1,-5,15)" stroke="rgb(255,251,139)">
          <rect x="20" y="310" width="120" rx="4" ry="4" height="60" stroke="none"/>
        </g>
        <g text-rendering="geometricPrecision" stroke-miterlimit="1.45" shape-rendering="geometricPrecision" transform="matrix(1,0,0,1,-5,15)" stroke-linecap="butt">
          <rect x="20" y="310" fill="none" width="120" rx="4" ry="4" height="60"/>
        </g>
        <g>
          <g text-rendering="geometricPrecision" stroke-miterlimit="1.45" shape-rendering="geometricPrecision" font-family="'David'" transform="matrix(1,0,0,1,-5,15)" stroke-linecap="butt">
            <text x="41.8203" xml:space="preserve" y="337.0117" stroke="none">ממירים ממותגים</text>
            <text x="55.4375" xml:space="preserve" y="348.8184" stroke="none"> בתדר גבוה</text>
          </g>
        </g>
      </a>
    </g>
    <g id="y.node.11">
      <a target="_blank" xlink:type="simple" xlink:href="https://ims.tau.ac.il/tal/kr/search_l.aspx?course_num=05124507&amp;year=2025&amp;lang=HE" xlink:show="new">
        <g fill="rgb(255,251,139)" text-rendering="geometricPrecision" shape-rendering="geometricPrecision" transform="matrix(1,0,0,1,-5,15)" stroke="rgb(255,251,139)">
          <rect x="770" y="310" width="120" rx="4" ry="4" height="60" stroke="none"/>
        </g>
        <g text-rendering="geometricPrecision" stroke-miterlimit="1.45" shape-rendering="geometricPrecision" transform="matrix(1,0,0,1,-5,15)" stroke-linecap="butt">
          <rect x="770" y="310" fill="none" width="120" rx="4" ry="4" height="60"/>
        </g>
        <g>
          <g text-rendering="geometricPrecision" stroke-miterlimit="1.45" shape-rendering="geometricPrecision" font-family="'David'" transform="matrix(1,0,0,1,-5,15)" stroke-linecap="butt">
            <text x="817.0537" xml:space="preserve" y="337.0117" stroke="none">מבוא </text>
            <text x="784.6807" xml:space="preserve" y="348.8184" stroke="none">לאלקטרוניקת הספק</text>
          </g>
        </g>
      </a>
    </g>
    <g id="y.node.12">
      <a target="_blank" xlink:type="simple" xlink:href="https://ims.tau.ac.il/tal/kr/search_l.aspx?course_num=05124510&amp;year=2025&amp;lang=HE" xlink:show="new">
        <g fill="rgb(255,251,139)" text-rendering="geometricPrecision" shape-rendering="geometricPrecision" transform="matrix(1,0,0,1,-5,15)" stroke="rgb(255,251,139)">
          <rect x="310" y="187" width="120" rx="4" ry="4" height="60" stroke="none"/>
        </g>
        <g text-rendering="geometricPrecision" stroke-miterlimit="1.45" shape-rendering="geometricPrecision" transform="matrix(1,0,0,1,-5,15)" stroke-linecap="butt">
          <rect x="310" y="187" fill="none" width="120" rx="4" ry="4" height="60"/>
        </g>
        <g>
          <g text-rendering="geometricPrecision" stroke-miterlimit="1.45" shape-rendering="geometricPrecision" font-family="'David'" transform="matrix(1,0,0,1,-5,15)" stroke-linecap="butt">
            <text x="318.877" xml:space="preserve" y="208.1084" stroke="none">עקרונות רשתות אנרגיה</text>
            <text x="317.0518" xml:space="preserve" y="219.915" stroke="none"> חכמות בשילוב מערכות </text>
            <text x="329.333" xml:space="preserve" y="231.7217" stroke="none">אנרגיות מתחדשות</text>
          </g>
        </g>
      </a>
    </g>
    <g id="y.node.13">
      <a target="_blank" xlink:type="simple" xlink:href="https://ims.tau.ac.il/tal/kr/search_l.aspx?course_num=05124362&amp;year=2025&amp;lang=HE" xlink:show="new">
        <g fill="url(#linearGradient2)" text-rendering="geometricPrecision" shape-rendering="geometricPrecision" transform="matrix(1,0,0,1,-5,15)" stroke="url(#linearGradient2)">
          <rect x="920" y="310" width="120" rx="4" ry="4" height="60" stroke="none"/>
        </g>
        <g text-rendering="geometricPrecision" stroke-miterlimit="1.45" shape-rendering="geometricPrecision" transform="matrix(1,0,0,1,-5,15)" stroke-linecap="butt">
          <rect x="920" y="310" fill="none" width="120" rx="4" ry="4" height="60"/>
        </g>
        <g>
          <g text-rendering="geometricPrecision" stroke-miterlimit="1.45" shape-rendering="geometricPrecision" font-family="'David'" transform="matrix(1,0,0,1,-5,15)" stroke-linecap="butt">
            <text x="926.8818" xml:space="preserve" y="342.915" stroke="none">מערכות משוב שימושיות</text>
          </g>
        </g>
        <g/>
      </a>
    </g>
    <g id="y.node.14">
      <a target="_blank" xlink:type="simple" xlink:href="https://ims.tau.ac.il/tal/kr/search_l.aspx?course_num=05123543&amp;year=2025&amp;lang=HE" xlink:show="new">
        <g fill="rgb(255,204,0)" text-rendering="geometricPrecision" shape-rendering="geometricPrecision" transform="matrix(1,0,0,1,-5,15)" stroke="rgb(255,204,0)">
          <rect x="920" y="187" width="120" rx="4" ry="4" height="60" stroke="none"/>
        </g>
        <g text-rendering="geometricPrecision" stroke-miterlimit="1.45" shape-rendering="geometricPrecision" transform="matrix(1,0,0,1,-5,15)" stroke-linecap="butt">
          <rect x="920" y="187" fill="none" width="120" rx="4" ry="4" height="60"/>
        </g>
        <g>
          <g text-rendering="geometricPrecision" stroke-miterlimit="1.45" shape-rendering="geometricPrecision" font-family="'David'" transform="matrix(1,0,0,1,-5,15)" stroke-linecap="butt">
            <text x="939.002" xml:space="preserve" y="219.915" stroke="none">מבוא לתורת בקרה</text>
          </g>
        </g>
      </a>
    </g>
    <g id="y.edge.0">
      <g text-rendering="geometricPrecision" stroke-miterlimit="1.45" shape-rendering="geometricPrecision" transform="matrix(1,0,0,1,-5,15)" stroke-linecap="butt">
        <path fill="none" d="M727.25 167 L727.25 178.9609"/>
        <path d="M727.25 186.9609 L732.25 174.9609 L727.25 177.9609 L722.25 174.9609 Z" stroke="none"/>
      </g>
    </g>
    <g id="y.edge.1">
      <g text-rendering="geometricPrecision" stroke-miterlimit="1.45" shape-rendering="geometricPrecision" transform="matrix(1,0,0,1,-5,15)" stroke-linecap="butt">
        <path fill="none" d="M520 167 L520 178.9609"/>
        <path d="M520 186.9609 L525 174.9609 L520 177.9609 L515 174.9609 Z" stroke="none"/>
      </g>
    </g>
    <g id="y.edge.2">
      <g text-rendering="geometricPrecision" stroke-miterlimit="1.45" shape-rendering="geometricPrecision" transform="matrix(1,0,0,1,-5,15)" stroke-linecap="butt">
        <path fill="none" d="M490 247 L490 278.5 L230 278.5 L230 301.9692"/>
        <path d="M230 309.9692 L235 297.9692 L230 300.9692 L225 297.9692 Z" stroke="none"/>
      </g>
    </g>
    <g id="y.edge.3">
      <g text-rendering="geometricPrecision" stroke-miterlimit="1.45" shape-rendering="geometricPrecision" transform="matrix(1,0,0,1,-5,15)" stroke-linecap="butt">
        <path fill="none" d="M230 370 L230 381.9609"/>
        <path d="M230 389.9609 L235 377.9609 L230 380.9609 L225 377.9609 Z" stroke="none"/>
      </g>
    </g>
    <g id="y.edge.4">
      <g text-rendering="geometricPrecision" stroke-miterlimit="1.45" shape-rendering="geometricPrecision" transform="matrix(1,0,0,1,-5,15)" stroke-linecap="butt">
        <path fill="none" d="M510 247 L510 294.5 L380 294.5 L380 301.9697"/>
        <path d="M380 309.9697 L385 297.9697 L380 300.9697 L375 297.9697 Z" stroke="none"/>
      </g>
    </g>
    <g id="y.edge.6">
      <g text-rendering="geometricPrecision" stroke-miterlimit="1.45" shape-rendering="geometricPrecision" transform="matrix(1,0,0,1,-5,15)" stroke-linecap="butt">
        <path fill="none" d="M550 247 L550 278.5 L680 278.5 L680 301.9692"/>
        <path d="M680 309.9692 L685 297.9692 L680 300.9692 L675 297.9692 Z" stroke="none"/>
      </g>
    </g>
    <g id="y.edge.5">
      <g text-rendering="geometricPrecision" stroke-miterlimit="1.45" shape-rendering="geometricPrecision" transform="matrix(1,0,0,1,-5,15)" stroke-linecap="butt">
        <path fill="none" d="M530 247 L530 301.9692"/>
        <path d="M530 309.9692 L535 297.9692 L530 300.9692 L525 297.9692 Z" stroke="none"/>
      </g>
    </g>
    <g id="y.edge.7">
      <g text-rendering="geometricPrecision" stroke-miterlimit="1.45" shape-rendering="geometricPrecision" transform="matrix(1,0,0,1,-5,15)" stroke-linecap="butt">
        <path fill="none" d="M570 60 L570 75.5 L50 75.5 L50 301.9714"/>
        <path d="M50 309.9714 L55 297.9714 L50 300.9714 L45 297.9714 Z" stroke="none"/>
      </g>
    </g>
    <g id="y.edge.8">
      <g text-rendering="geometricPrecision" stroke-miterlimit="1.45" shape-rendering="geometricPrecision" transform="matrix(1,0,0,1,-5,15)" stroke-linecap="butt">
        <path fill="none" d="M470 247 L470 262.5 L110 262.5 L110 301.9536"/>
        <path d="M110 309.9536 L115 297.9536 L110 300.9536 L105 297.9536 Z" stroke="none"/>
      </g>
    </g>
    <g id="y.edge.9">
      <g text-rendering="geometricPrecision" stroke-miterlimit="1.45" shape-rendering="geometricPrecision" transform="matrix(1,0,0,1,-5,15)" stroke-linecap="butt">
        <path fill="none" d="M570 247 L570 262.5 L800 262.5 L800 301.9536"/>
        <path d="M800 309.9536 L805 297.9536 L800 300.9536 L795 297.9536 Z" stroke="none"/>
      </g>
    </g>
    <g id="y.edge.10">
      <g text-rendering="geometricPrecision" stroke-miterlimit="1.45" shape-rendering="geometricPrecision" transform="matrix(1,0,0,1,-5,15)" stroke-linecap="butt">
        <path fill="none" d="M630 60 L630 91.5 L860 91.5 L860 301.9733"/>
        <path d="M860 309.9733 L865 297.9733 L860 300.9733 L855 297.9733 Z" stroke="none"/>
      </g>
    </g>
    <g id="y.edge.11">
      <g text-rendering="geometricPrecision" stroke-miterlimit="1.45" shape-rendering="geometricPrecision" transform="matrix(1,0,0,1,-5,15)" stroke-linecap="butt">
        <path fill="none" d="M600 60 L600 91.5 L370 91.5 L370 178.9534"/>
        <path d="M370 186.9534 L375 174.9534 L370 177.9534 L365 174.9534 Z" stroke="none"/>
      </g>
    </g>
    <g id="y.edge.13">
      <g text-rendering="geometricPrecision" stroke-miterlimit="1.45" shape-rendering="geometricPrecision" transform="matrix(1,0,0,1,-5,15)" stroke-linecap="butt">
        <path fill="none" d="M660 60 L660 75.5 L980 75.5 L980 178.9728"/>
        <path d="M980 186.9728 L985 174.9728 L980 177.9728 L975 174.9728 Z" stroke="none"/>
      </g>
    </g>
    <g id="y.edge.12">
      <g text-rendering="geometricPrecision" stroke-miterlimit="1.45" shape-rendering="geometricPrecision" transform="matrix(1,0,0,1,-5,15)" stroke-linecap="butt">
        <path fill="none" d="M980 247 L980 301.9692"/>
        <path d="M980 309.9692 L985 297.9692 L980 300.9692 L975 297.9692 Z" stroke="none"/>
      </g>
    </g>
  </g>
</svg>
