<?xml version="1.0" encoding="UTF-8"?><svg xmlns="http://www.w3.org/2000/svg" xmlns:xlink="http://www.w3.org/1999/xlink" fill-opacity="1" color-rendering="auto" color-interpolation="auto" text-rendering="auto" stroke="black" stroke-linecap="square" width="856" stroke-miterlimit="10" shape-rendering="auto" stroke-opacity="1" fill="black" stroke-dasharray="none" font-weight="normal" stroke-width="1" height="609" font-family="'Dialog'" font-style="normal" stroke-linejoin="miter" font-size="12px" stroke-dashoffset="0" image-rendering="auto">
  <!--Generated by ySVG 2.6-->
  <defs id="genericDefs"/>
  <g>
    <defs id="defs1">
      <linearGradient x1="427.75" gradientUnits="userSpaceOnUse" x2="507.75" y1="519" y2="519" id="linearGradient1" spreadMethod="reflect">
        <stop stop-opacity="1" stop-color="rgb(31,119,180)" offset="0%"/>
        <stop stop-opacity="1" stop-color="rgb(12,95,57)" offset="100%"/>
      </linearGradient>
      <linearGradient x1="90" gradientUnits="userSpaceOnUse" x2="170" y1="428" y2="428" id="linearGradient2" spreadMethod="reflect">
        <stop stop-opacity="1" stop-color="rgb(31,119,180)" offset="0%"/>
        <stop stop-opacity="1" stop-color="rgb(12,95,57)" offset="100%"/>
      </linearGradient>
      <linearGradient x1="765.5" gradientUnits="userSpaceOnUse" x2="845.5" y1="428" y2="428" id="linearGradient3" spreadMethod="reflect">
        <stop stop-opacity="1" stop-color="rgb(127,127,127)" offset="0%"/>
        <stop stop-opacity="1" stop-color="rgb(12,95,57)" offset="100%"/>
      </linearGradient>
      <linearGradient x1="210" gradientUnits="userSpaceOnUse" x2="290" y1="305" y2="305" id="linearGradient4" spreadMethod="reflect">
        <stop stop-opacity="1" stop-color="rgb(127,127,127)" offset="0%"/>
        <stop stop-opacity="1" stop-color="rgb(12,95,57)" offset="100%"/>
      </linearGradient>
      <linearGradient x1="720" gradientUnits="userSpaceOnUse" x2="800" y1="305" y2="305" id="linearGradient5" spreadMethod="reflect">
        <stop stop-opacity="1" stop-color="rgb(44,160,44)" offset="0%"/>
        <stop stop-opacity="1" stop-color="rgb(12,95,57)" offset="100%"/>
      </linearGradient>
      <linearGradient x1="60" gradientUnits="userSpaceOnUse" x2="140" y1="305" y2="305" id="linearGradient6" spreadMethod="reflect">
        <stop stop-opacity="1" stop-color="rgb(31,119,180)" offset="0%"/>
        <stop stop-opacity="1" stop-color="rgb(14,38,209)" offset="100%"/>
      </linearGradient>
      <clipPath clipPathUnits="userSpaceOnUse" id="clipPath1">
        <path d="M0 0 L856 0 L856 609 L0 609 L0 0 Z"/>
      </clipPath>
      <clipPath clipPathUnits="userSpaceOnUse" id="clipPath2">
        <path d="M5 -15 L861 -15 L861 594 L5 594 L5 -15 Z"/>
      </clipPath>
    </defs>
    <g fill="white" text-rendering="geometricPrecision" shape-rendering="geometricPrecision" transform="translate(-5,15)" stroke="white">
      <rect x="5" width="856" height="609" y="-15" clip-path="url(#clipPath2)" stroke="none"/>
    </g>
    <g id="y.node.0">
      <a target="_blank" xlink:type="simple" xlink:href="https://ims.tau.ac.il/tal/kr/search_l.aspx?course_num=05124711&amp;year=2025&amp;lang=HE" xlink:show="new">
        <g fill="rgb(12,95,57)" text-rendering="geometricPrecision" shape-rendering="geometricPrecision" transform="matrix(1,0,0,1,-5,15)" stroke="rgb(12,95,57)">
          <rect x="725.5" y="519" width="120" rx="4" ry="4" height="60" stroke="none"/>
        </g>
        <g text-rendering="geometricPrecision" stroke-miterlimit="1.45" shape-rendering="geometricPrecision" transform="matrix(1,0,0,1,-5,15)" stroke-linecap="butt">
          <rect x="725.5" y="519" fill="none" width="120" rx="4" ry="4" height="60"/>
        </g>
        <g>
          <g stroke-linecap="butt" transform="matrix(1,0,0,1,-5,15)" fill="white" text-rendering="geometricPrecision" font-family="'David'" shape-rendering="geometricPrecision" stroke="white" stroke-miterlimit="1.45">
            <text x="741.1826" xml:space="preserve" y="546.0117" stroke="none">תכן, אימות וסינתזה</text>
            <text x="741.124" xml:space="preserve" y="557.8184" stroke="none"> לוגית למעגלי VLSI</text>
          </g>
        </g>
      </a>
    </g>
    <g id="y.node.1">
      <a target="_blank" xlink:type="simple" xlink:href="https://ims.tau.ac.il/tal/kr/search_l.aspx?course_num=05124652&amp;year=2025&amp;lang=HE" xlink:show="new">
        <g fill="url(#linearGradient1)" text-rendering="geometricPrecision" shape-rendering="geometricPrecision" transform="matrix(1,0,0,1,-5,15)" stroke="url(#linearGradient1)">
          <rect x="387.75" y="519" width="120" rx="4" ry="4" height="60" stroke="none"/>
        </g>
        <g text-rendering="geometricPrecision" stroke-miterlimit="1.45" shape-rendering="geometricPrecision" transform="matrix(1,0,0,1,-5,15)" stroke-linecap="butt">
          <rect x="387.75" y="519" fill="none" width="120" rx="4" ry="4" height="60"/>
        </g>
        <g>
          <g text-rendering="geometricPrecision" stroke-miterlimit="1.45" shape-rendering="geometricPrecision" font-family="'David'" transform="matrix(1,0,0,1,-5,15)" stroke-linecap="butt">
            <text x="410.2295" xml:space="preserve" y="546.0117" stroke="none">מעגלים משולבים</text>
            <text x="423.3516" xml:space="preserve" y="557.8184" stroke="none"> לתדר גבוה</text>
          </g>
        </g>
      </a>
    </g>
    <g id="y.node.2">
      <a target="_blank" xlink:type="simple" xlink:href="https://ims.tau.ac.il/tal/kr/search_l.aspx?course_num=05124164&amp;year=2025&amp;lang=HE" xlink:show="new">
        <g fill="url(#linearGradient2)" text-rendering="geometricPrecision" shape-rendering="geometricPrecision" transform="matrix(1,0,0,1,-5,15)" stroke="url(#linearGradient2)">
          <rect x="50" y="428" width="120" rx="4" ry="4" height="60" stroke="none"/>
        </g>
        <g text-rendering="geometricPrecision" stroke-miterlimit="1.45" shape-rendering="geometricPrecision" transform="matrix(1,0,0,1,-5,15)" stroke-linecap="butt">
          <rect x="50" y="428" fill="none" width="120" rx="4" ry="4" height="60"/>
        </g>
        <g>
          <g text-rendering="geometricPrecision" stroke-miterlimit="1.45" shape-rendering="geometricPrecision" font-family="'David'" transform="matrix(1,0,0,1,-5,15)" stroke-linecap="butt">
            <text x="77.2959" xml:space="preserve" y="460.915" stroke="none">מעגלי תקשורת</text>
          </g>
        </g>
      </a>
    </g>
    <g id="y.node.3">
      <a target="_blank" xlink:type="simple" xlink:href="https://ims.tau.ac.il/tal/kr/search_l.aspx?course_num=05124706&amp;year=2025&amp;lang=HE" xlink:show="new">
        <g fill="rgb(12,95,57)" text-rendering="geometricPrecision" shape-rendering="geometricPrecision" transform="matrix(1,0,0,1,-5,15)" stroke="rgb(12,95,57)">
          <rect x="275.5" y="428" width="120" rx="4" ry="4" height="60" stroke="none"/>
        </g>
        <g text-rendering="geometricPrecision" stroke-miterlimit="1.45" shape-rendering="geometricPrecision" transform="matrix(1,0,0,1,-5,15)" stroke-linecap="butt">
          <rect x="275.5" y="428" fill="none" width="120" rx="4" ry="4" height="60"/>
        </g>
        <g>
          <g stroke-linecap="butt" transform="matrix(1,0,0,1,-5,15)" fill="white" text-rendering="geometricPrecision" font-family="'David'" shape-rendering="geometricPrecision" stroke="white" stroke-miterlimit="1.45">
            <text x="295.3252" xml:space="preserve" y="455.0117" stroke="none">מעגלים אנאלוגיים</text>
            <text x="314.251" xml:space="preserve" y="466.8184" stroke="none"> משולבים</text>
          </g>
        </g>
      </a>
    </g>
    <g id="y.node.4">
      <a target="_blank" xlink:type="simple" xlink:href="https://ims.tau.ac.il/tal/kr/search_l.aspx?course_num=05124707&amp;year=2025&amp;lang=HE" xlink:show="new">
        <g fill="rgb(12,95,57)" text-rendering="geometricPrecision" shape-rendering="geometricPrecision" transform="matrix(1,0,0,1,-5,15)" stroke="rgb(12,95,57)">
          <rect x="425.5" y="428" width="120" rx="4" ry="4" height="60" stroke="none"/>
        </g>
        <g text-rendering="geometricPrecision" stroke-miterlimit="1.45" shape-rendering="geometricPrecision" transform="matrix(1,0,0,1,-5,15)" stroke-linecap="butt">
          <rect x="425.5" y="428" fill="none" width="120" rx="4" ry="4" height="60"/>
        </g>
        <g>
          <g stroke-linecap="butt" transform="matrix(1,0,0,1,-5,15)" fill="white" text-rendering="geometricPrecision" font-family="'David'" shape-rendering="geometricPrecision" stroke="white" stroke-miterlimit="1.45">
            <text x="455.4561" xml:space="preserve" y="455.0117" stroke="none">תכנון מתקדם</text>
            <text x="452.5879" xml:space="preserve" y="466.8184" stroke="none"> של מעגלי Vlsi</text>
          </g>
        </g>
      </a>
    </g>
    <g id="y.node.5">
      <a target="_blank" xlink:type="simple" xlink:href="https://ims.tau.ac.il/tal/kr/search_l.aspx?course_num=05124703&amp;year=2025&amp;lang=HE" xlink:show="new">
        <g fill="url(#linearGradient3)" text-rendering="geometricPrecision" shape-rendering="geometricPrecision" transform="matrix(1,0,0,1,-5,15)" stroke="url(#linearGradient3)">
          <rect x="725.5" y="428" width="120" rx="4" ry="4" height="60" stroke="none"/>
        </g>
        <g text-rendering="geometricPrecision" stroke-miterlimit="1.45" shape-rendering="geometricPrecision" transform="matrix(1,0,0,1,-5,15)" stroke-linecap="butt">
          <rect x="725.5" y="428" fill="none" width="120" rx="4" ry="4" height="60"/>
        </g>
        <g>
          <g text-rendering="geometricPrecision" stroke-miterlimit="1.45" shape-rendering="geometricPrecision" font-family="'David'" transform="matrix(1,0,0,1,-5,15)" stroke-linecap="butt">
            <text x="732.8389" xml:space="preserve" y="460.915" stroke="none">מבוא לתכנון מעגלי Vlsi</text>
          </g>
        </g>
        <g/>
      </a>
    </g>
    <g id="y.node.6">
      <a target="_blank" xlink:type="simple" xlink:href="https://ims.tau.ac.il/tal/kr/search_l.aspx?course_num=05124400&amp;year=2025&amp;lang=HE" xlink:show="new">
        <g fill="url(#linearGradient4)" text-rendering="geometricPrecision" shape-rendering="geometricPrecision" transform="matrix(1,0,0,1,-5,15)" stroke="url(#linearGradient4)">
          <rect x="170" y="305" width="120" rx="4" ry="4" height="60" stroke="none"/>
        </g>
        <g text-rendering="geometricPrecision" stroke-miterlimit="1.45" shape-rendering="geometricPrecision" transform="matrix(1,0,0,1,-5,15)" stroke-linecap="butt">
          <rect x="170" y="305" fill="none" width="120" rx="4" ry="4" height="60"/>
        </g>
        <g>
          <g text-rendering="geometricPrecision" stroke-miterlimit="1.45" shape-rendering="geometricPrecision" font-family="'David'" transform="matrix(1,0,0,1,-5,15)" stroke-linecap="butt">
            <text x="200.6211" xml:space="preserve" y="337.915" stroke="none">מבנה המחשב</text>
          </g>
        </g>
        <g/>
      </a>
    </g>
    <g id="y.node.7">
      <a target="_blank" xlink:type="simple" xlink:href="https://ims.tau.ac.il/tal/kr/search_l.aspx?course_num=05124710&amp;year=2025&amp;lang=HE" xlink:show="new">
        <g fill="url(#linearGradient5)" text-rendering="geometricPrecision" shape-rendering="geometricPrecision" transform="matrix(1,0,0,1,-5,15)" stroke="url(#linearGradient5)">
          <rect x="680" y="305" width="120" rx="4" ry="4" height="60" stroke="none"/>
        </g>
        <g text-rendering="geometricPrecision" stroke-miterlimit="1.45" shape-rendering="geometricPrecision" transform="matrix(1,0,0,1,-5,15)" stroke-linecap="butt">
          <rect x="680" y="305" fill="none" width="120" rx="4" ry="4" height="60"/>
        </g>
        <g>
          <g text-rendering="geometricPrecision" stroke-miterlimit="1.45" shape-rendering="geometricPrecision" font-family="'David'" transform="matrix(1,0,0,1,-5,15)" stroke-linecap="butt">
            <text x="708.7959" xml:space="preserve" y="332.0117" stroke="none">מעבדה לרכיבי</text>
            <text x="686.1729" xml:space="preserve" y="343.8184" stroke="none"> חומרה מיתכנתים-Fpga</text>
          </g>
        </g>
      </a>
    </g>
    <g id="y.node.8">
      <a target="_blank" xlink:type="simple" xlink:href="https://ims.tau.ac.il/tal/kr/search_l.aspx?course_num=05124100&amp;year=2025&amp;lang=HE" xlink:show="new">
        <g fill="url(#linearGradient6)" text-rendering="geometricPrecision" shape-rendering="geometricPrecision" transform="matrix(1,0,0,1,-5,15)" stroke="url(#linearGradient6)">
          <rect x="20" y="305" width="120" rx="4" ry="4" height="60" stroke="none"/>
        </g>
        <g text-rendering="geometricPrecision" stroke-miterlimit="1.45" shape-rendering="geometricPrecision" transform="matrix(1,0,0,1,-5,15)" stroke-linecap="butt">
          <rect x="20" y="305" fill="none" width="120" rx="4" ry="4" height="60"/>
        </g>
        <g>
          <g text-rendering="geometricPrecision" stroke-miterlimit="1.45" shape-rendering="geometricPrecision" font-family="'David'" transform="matrix(1,0,0,1,-5,15)" stroke-linecap="butt">
            <text x="42.8164" xml:space="preserve" y="337.915" stroke="none">מערכות תקשורת</text>
          </g>
        </g>
      </a>
    </g>
    <g id="y.node.9">
      <a target="_blank" xlink:type="simple" xlink:href="https://ims.tau.ac.il/tal/kr/search_l.aspx?course_num=05123513&amp;year=2025&amp;lang=HE" xlink:show="new">
        <g fill="rgb(255,204,0)" text-rendering="geometricPrecision" shape-rendering="geometricPrecision" transform="matrix(1,0,0,1,-5,15)" stroke="rgb(255,204,0)">
          <rect x="320" y="305" width="120" rx="4" ry="4" height="60" stroke="none"/>
        </g>
        <g text-rendering="geometricPrecision" stroke-miterlimit="1.45" shape-rendering="geometricPrecision" transform="matrix(1,0,0,1,-5,15)" stroke-linecap="butt">
          <rect x="320" y="305" fill="none" width="120" rx="4" ry="4" height="60"/>
        </g>
        <g>
          <g text-rendering="geometricPrecision" stroke-miterlimit="1.45" shape-rendering="geometricPrecision" font-family="'David'" transform="matrix(1,0,0,1,-5,15)" stroke-linecap="butt">
            <text x="335.5098" xml:space="preserve" y="332.0117" stroke="none">מעגלים אלקטרוניים</text>
            <text x="360.9102" xml:space="preserve" y="343.8184" stroke="none">אנלוגיים</text>
          </g>
        </g>
      </a>
    </g>
    <g id="y.node.10">
      <a target="_blank" xlink:type="simple" xlink:href="https://ims.tau.ac.il/tal/kr/search_l.aspx?course_num=05122532&amp;year=2025&amp;lang=HE" xlink:show="new">
        <g fill="rgb(255,204,0)" text-rendering="geometricPrecision" shape-rendering="geometricPrecision" transform="matrix(1,0,0,1,-5,15)" stroke="rgb(255,204,0)">
          <rect x="20" y="214" width="120" rx="4" ry="4" height="60" stroke="none"/>
        </g>
        <g text-rendering="geometricPrecision" stroke-miterlimit="1.45" shape-rendering="geometricPrecision" transform="matrix(1,0,0,1,-5,15)" stroke-linecap="butt">
          <rect x="20" y="214" fill="none" width="120" rx="4" ry="4" height="60"/>
        </g>
        <g>
          <g text-rendering="geometricPrecision" stroke-miterlimit="1.45" shape-rendering="geometricPrecision" font-family="'David'" transform="matrix(1,0,0,1,-5,15)" stroke-linecap="butt">
            <text x="43.9795" xml:space="preserve" y="241.0117" stroke="none">אותות אקראיים</text>
            <text x="69.043" xml:space="preserve" y="252.8184" stroke="none">ורעש</text>
          </g>
        </g>
      </a>
    </g>
    <g id="y.node.11">
      <a target="_blank" xlink:type="simple" xlink:href="https://ims.tau.ac.il/tal/kr/search_l.aspx?course_num=05122508&amp;year=2025&amp;lang=HE" xlink:show="new">
        <g fill="rgb(255,204,0)" text-rendering="geometricPrecision" shape-rendering="geometricPrecision" transform="matrix(1,0,0,1,-5,15)" stroke="rgb(255,204,0)">
          <rect x="395.5" y="214" width="120" rx="4" ry="4" height="60" stroke="none"/>
        </g>
        <g text-rendering="geometricPrecision" stroke-miterlimit="1.45" shape-rendering="geometricPrecision" transform="matrix(1,0,0,1,-5,15)" stroke-linecap="butt">
          <rect x="395.5" y="214" fill="none" width="120" rx="4" ry="4" height="60"/>
        </g>
        <g>
          <g text-rendering="geometricPrecision" stroke-miterlimit="1.45" shape-rendering="geometricPrecision" font-family="'David'" transform="matrix(1,0,0,1,-5,15)" stroke-linecap="butt">
            <text x="437.9043" xml:space="preserve" y="241.0117" stroke="none">התקנים</text>
            <text x="427.2812" xml:space="preserve" y="252.8184" stroke="none"> אלקטרוניים</text>
          </g>
        </g>
      </a>
    </g>
    <g id="y.node.12">
      <a target="_blank" xlink:type="simple" xlink:href="https://ims.tau.ac.il/tal/kr/search_l.aspx?course_num=05122510&amp;year=2025&amp;lang=HE" xlink:show="new">
        <g fill="rgb(255,204,0)" text-rendering="geometricPrecision" shape-rendering="geometricPrecision" transform="matrix(1,0,0,1,-5,15)" stroke="rgb(255,204,0)">
          <rect x="170" y="214" width="120" rx="4" ry="4" height="60" stroke="none"/>
        </g>
        <g text-rendering="geometricPrecision" stroke-miterlimit="1.45" shape-rendering="geometricPrecision" transform="matrix(1,0,0,1,-5,15)" stroke-linecap="butt">
          <rect x="170" y="214" fill="none" width="120" rx="4" ry="4" height="60"/>
        </g>
        <g>
          <g text-rendering="geometricPrecision" stroke-miterlimit="1.45" shape-rendering="geometricPrecision" font-family="'David'" transform="matrix(1,0,0,1,-5,15)" stroke-linecap="butt">
            <text x="204.2744" xml:space="preserve" y="241.0117" stroke="none">מבני נתונים</text>
            <text x="201.1162" xml:space="preserve" y="252.8184" stroke="none">ואלגוריתמים</text>
          </g>
        </g>
      </a>
    </g>
    <g id="y.node.13">
      <a target="_blank" xlink:type="simple" xlink:href="https://ims.tau.ac.il/tal/kr/search_l.aspx?course_num=05123561&amp;year=2025&amp;lang=HE" xlink:show="new">
        <g fill="rgb(255,204,0)" text-rendering="geometricPrecision" shape-rendering="geometricPrecision" transform="matrix(1,0,0,1,-5,15)" stroke="rgb(255,204,0)">
          <rect x="492" y="0" width="120" rx="4" ry="4" height="60" stroke="none"/>
        </g>
        <g text-rendering="geometricPrecision" stroke-miterlimit="1.45" shape-rendering="geometricPrecision" transform="matrix(1,0,0,1,-5,15)" stroke-linecap="butt">
          <rect x="492" y="0" fill="none" width="120" rx="4" ry="4" height="60"/>
        </g>
        <g>
          <g text-rendering="geometricPrecision" stroke-miterlimit="1.45" shape-rendering="geometricPrecision" font-family="'David'" transform="matrix(1,0,0,1,-5,15)" stroke-linecap="butt">
            <text x="539.7129" xml:space="preserve" y="32.915" stroke="none">מל"ס</text>
          </g>
        </g>
      </a>
    </g>
    <g id="y.node.14">
      <a target="_blank" xlink:type="simple" xlink:href="https://ims.tau.ac.il/tal/kr/search_l.aspx?course_num=05122832&amp;year=2025&amp;lang=HE" xlink:show="new">
        <g fill="rgb(255,204,0)" text-rendering="geometricPrecision" shape-rendering="geometricPrecision" transform="matrix(1,0,0,1,-5,15)" stroke="rgb(255,204,0)">
          <rect x="588.5" y="123" width="120" rx="4" ry="4" height="60" stroke="none"/>
        </g>
        <g text-rendering="geometricPrecision" stroke-miterlimit="1.45" shape-rendering="geometricPrecision" transform="matrix(1,0,0,1,-5,15)" stroke-linecap="butt">
          <rect x="588.5" y="123" fill="none" width="120" rx="4" ry="4" height="60"/>
        </g>
        <g>
          <g text-rendering="geometricPrecision" stroke-miterlimit="1.45" shape-rendering="geometricPrecision" font-family="'David'" transform="matrix(1,0,0,1,-5,15)" stroke-linecap="butt">
            <text x="611.9785" xml:space="preserve" y="150.0117" stroke="none">מעגלים ומערכות</text>
            <text x="626.9229" xml:space="preserve" y="161.8184" stroke="none">ליניאריות</text>
          </g>
        </g>
      </a>
    </g>
    <g id="y.node.15">
      <a target="_blank" xlink:type="simple" xlink:href="https://ims.tau.ac.il/tal/kr/search_l.aspx?course_num=05123514&amp;year=2025&amp;lang=HE" xlink:show="new">
        <g fill="rgb(255,204,0)" text-rendering="geometricPrecision" shape-rendering="geometricPrecision" transform="matrix(1,0,0,1,-5,15)" stroke="rgb(255,204,0)">
          <rect x="575.5" y="428" width="120" rx="4" ry="4" height="60" stroke="none"/>
        </g>
        <g text-rendering="geometricPrecision" stroke-miterlimit="1.45" shape-rendering="geometricPrecision" transform="matrix(1,0,0,1,-5,15)" stroke-linecap="butt">
          <rect x="575.5" y="428" fill="none" width="120" rx="4" ry="4" height="60"/>
        </g>
        <g>
          <g text-rendering="geometricPrecision" stroke-miterlimit="1.45" shape-rendering="geometricPrecision" font-family="'David'" transform="matrix(1,0,0,1,-5,15)" stroke-linecap="butt">
            <text x="591.0098" xml:space="preserve" y="455.0117" stroke="none">מעגלים אלקטרוניים</text>
            <text x="615.7451" xml:space="preserve" y="466.8184" stroke="none">ספרטיים</text>
          </g>
        </g>
      </a>
    </g>
    <g id="y.edge.21">
      <g text-rendering="geometricPrecision" stroke-miterlimit="1.45" shape-rendering="geometricPrecision" transform="matrix(1,0,0,1,-5,15)" stroke-linecap="butt">
        <path fill="none" d="M785.5 488 L785.5 510.9697"/>
        <path d="M785.5 518.9697 L790.5 506.9697 L785.5 509.9697 L780.5 506.9697 Z" stroke="none"/>
      </g>
    </g>
    <g id="y.edge.14">
      <g text-rendering="geometricPrecision" stroke-miterlimit="1.45" shape-rendering="geometricPrecision" transform="matrix(1,0,0,1,-5,15)" stroke-linecap="butt">
        <path fill="none" d="M80 365 L80 419.9692"/>
        <path d="M80 427.9692 L85 415.9692 L80 418.9692 L75 415.9692 Z" stroke="none"/>
      </g>
    </g>
    <g id="y.edge.15">
      <g text-rendering="geometricPrecision" stroke-miterlimit="1.45" shape-rendering="geometricPrecision" transform="matrix(1,0,0,1,-5,15)" stroke-linecap="butt">
        <path fill="none" d="M340 365 L340 380.5 L140 380.5 L140 419.9536"/>
        <path d="M140 427.9536 L145 415.9536 L140 418.9536 L135 415.9536 Z" stroke="none"/>
      </g>
    </g>
    <g id="y.edge.18">
      <g text-rendering="geometricPrecision" stroke-miterlimit="1.45" shape-rendering="geometricPrecision" transform="matrix(1,0,0,1,-5,15)" stroke-linecap="butt">
        <path fill="none" d="M420 365 L420 412.5 L335.5 412.5 L335.5 419.9697"/>
        <path d="M335.5 427.9697 L340.5 415.9697 L335.5 418.9697 L330.5 415.9697 Z" stroke="none"/>
      </g>
    </g>
    <g id="y.edge.20">
      <g text-rendering="geometricPrecision" stroke-miterlimit="1.45" shape-rendering="geometricPrecision" transform="matrix(1,0,0,1,-5,15)" stroke-linecap="butt">
        <path fill="none" d="M380 365 L380 396.5 L260 396.5 L260 503.5 L417.75 503.5 L417.75 510.9697"/>
        <path d="M417.75 518.9697 L422.75 506.9697 L417.75 509.9697 L412.75 506.9697 Z" stroke="none"/>
      </g>
    </g>
    <g id="y.edge.9">
      <g text-rendering="geometricPrecision" stroke-miterlimit="1.45" shape-rendering="geometricPrecision" transform="matrix(1,0,0,1,-5,15)" stroke-linecap="butt">
        <path fill="none" d="M80 274 L80 296.9697"/>
        <path d="M80 304.9697 L85 292.9697 L80 295.9697 L75 292.9697 Z" stroke="none"/>
      </g>
    </g>
    <g id="y.edge.10">
      <g text-rendering="geometricPrecision" stroke-miterlimit="1.45" shape-rendering="geometricPrecision" transform="matrix(1,0,0,1,-5,15)" stroke-linecap="butt">
        <path fill="none" d="M495.5 274 L495.5 289.5 L664.5 289.5 L664.5 380.5 L755.5 380.5 L755.5 419.9536"/>
        <path d="M755.5 427.9536 L760.5 415.9536 L755.5 418.9536 L750.5 415.9536 Z" stroke="none"/>
      </g>
    </g>
    <g id="y.edge.11">
      <g text-rendering="geometricPrecision" stroke-miterlimit="1.45" shape-rendering="geometricPrecision" transform="matrix(1,0,0,1,-5,15)" stroke-linecap="butt">
        <path fill="none" d="M455.5 274 L455.5 419.9624"/>
        <path d="M455.5 427.9624 L460.5 415.9624 L455.5 418.9624 L450.5 415.9624 Z" stroke="none"/>
      </g>
    </g>
    <g id="y.edge.12">
      <g text-rendering="geometricPrecision" stroke-miterlimit="1.45" shape-rendering="geometricPrecision" transform="matrix(1,0,0,1,-5,15)" stroke-linecap="butt">
        <path fill="none" d="M415.5 274 L415.5 289.5 L410 289.5 L410 296.9697"/>
        <path d="M410 304.9697 L415 292.9697 L410 295.9697 L405 292.9697 Z" stroke="none"/>
      </g>
    </g>
    <g id="y.edge.13">
      <g text-rendering="geometricPrecision" stroke-miterlimit="1.45" shape-rendering="geometricPrecision" transform="matrix(1,0,0,1,-5,15)" stroke-linecap="butt">
        <path fill="none" d="M230 274 L230 289.5 L200 289.5 L200 296.9697"/>
        <path d="M200 304.9697 L205 292.9697 L200 295.9697 L195 292.9697 Z" stroke="none"/>
      </g>
    </g>
    <g id="y.edge.0">
      <g text-rendering="geometricPrecision" stroke-miterlimit="1.45" shape-rendering="geometricPrecision" transform="matrix(1,0,0,1,-5,15)" stroke-linecap="butt">
        <path fill="none" d="M522 60 L522 91.5 L305.5 91.5 L305.5 289.5 L260 289.5 L260 296.9697"/>
        <path d="M260 304.9697 L265 292.9697 L260 295.9697 L255 292.9697 Z" stroke="none"/>
      </g>
    </g>
    <g id="y.edge.1">
      <g text-rendering="geometricPrecision" stroke-miterlimit="1.45" shape-rendering="geometricPrecision" transform="matrix(1,0,0,1,-5,15)" stroke-linecap="butt">
        <path fill="none" d="M602 60 L602 75.5 L815.5 75.5 L815.5 419.957"/>
        <path d="M815.5 427.957 L820.5 415.957 L815.5 418.957 L810.5 415.957 Z" stroke="none"/>
      </g>
    </g>
    <g id="y.edge.2">
      <g text-rendering="geometricPrecision" stroke-miterlimit="1.45" shape-rendering="geometricPrecision" transform="matrix(1,0,0,1,-5,15)" stroke-linecap="butt">
        <path fill="none" d="M502 60 L502 75.5 L230 75.5 L230 205.9662"/>
        <path d="M230 213.9662 L235 201.9662 L230 204.9662 L225 201.9662 Z" stroke="none"/>
      </g>
    </g>
    <g id="y.edge.4">
      <g text-rendering="geometricPrecision" stroke-miterlimit="1.45" shape-rendering="geometricPrecision" transform="matrix(1,0,0,1,-5,15)" stroke-linecap="butt">
        <path fill="none" d="M582 60 L582 91.5 L770 91.5 L770 296.9739"/>
        <path d="M770 304.9739 L775 292.9739 L770 295.9739 L765 292.9739 Z" stroke="none"/>
      </g>
    </g>
    <g id="y.edge.5">
      <g text-rendering="geometricPrecision" stroke-miterlimit="1.45" shape-rendering="geometricPrecision" transform="matrix(1,0,0,1,-5,15)" stroke-linecap="butt">
        <path fill="none" d="M542 60 L542 107.5 L531 107.5 L531 350.5 L515.5 350.5 L515.5 419.9622"/>
        <path d="M515.5 427.9622 L520.5 415.9622 L515.5 418.9622 L510.5 415.9622 Z" stroke="none"/>
      </g>
    </g>
    <g id="y.edge.6">
      <g text-rendering="geometricPrecision" stroke-miterlimit="1.45" shape-rendering="geometricPrecision" transform="matrix(1,0,0,1,-5,15)" stroke-linecap="butt">
        <path fill="none" d="M688.5 183 L688.5 198.5 L710 198.5 L710 296.974"/>
        <path d="M710 304.974 L715 292.974 L710 295.974 L705 292.974 Z" stroke="none"/>
      </g>
    </g>
    <g id="y.edge.7">
      <g text-rendering="geometricPrecision" stroke-miterlimit="1.45" shape-rendering="geometricPrecision" transform="matrix(1,0,0,1,-5,15)" stroke-linecap="butt">
        <path fill="none" d="M608.5 183 L608.5 198.5 L350 198.5 L350 296.974"/>
        <path d="M350 304.974 L355 292.974 L350 295.974 L345 292.974 Z" stroke="none"/>
      </g>
    </g>
    <g id="y.edge.3">
      <g text-rendering="geometricPrecision" stroke-miterlimit="1.45" shape-rendering="geometricPrecision" transform="matrix(1,0,0,1,-5,15)" stroke-linecap="butt">
        <path fill="none" d="M562 60 L562 107.5 L573 107.5 L573 350.5 L605.5 350.5 L605.5 419.9622"/>
        <path d="M605.5 427.9622 L610.5 415.9622 L605.5 418.9622 L600.5 415.9622 Z" stroke="none"/>
      </g>
    </g>
    <g id="y.edge.8">
      <g text-rendering="geometricPrecision" stroke-miterlimit="1.45" shape-rendering="geometricPrecision" transform="matrix(1,0,0,1,-5,15)" stroke-linecap="butt">
        <path fill="none" d="M648.5 183 L648.5 396.5 L665.5 396.5 L665.5 419.9692"/>
        <path d="M665.5 427.9692 L670.5 415.9692 L665.5 418.9692 L660.5 415.9692 Z" stroke="none"/>
      </g>
    </g>
    <g id="y.edge.16">
      <g text-rendering="geometricPrecision" stroke-miterlimit="1.45" shape-rendering="geometricPrecision" transform="matrix(1,0,0,1,-5,15)" stroke-linecap="butt">
        <path fill="none" d="M695.5 458 L717.4707 458"/>
        <path d="M725.4707 458 L713.4707 453 L716.4707 458 L713.4707 463 Z" stroke="none"/>
      </g>
    </g>
    <g id="y.edge.17">
      <g text-rendering="geometricPrecision" stroke-miterlimit="1.45" shape-rendering="geometricPrecision" transform="matrix(1,0,0,1,-5,15)" stroke-linecap="butt">
        <path fill="none" d="M575.4707 458 L553.5 458"/>
        <path d="M545.5 458 L557.5 463 L554.5 458 L557.5 453 Z" stroke="none"/>
      </g>
    </g>
    <g id="y.edge.19">
      <g text-rendering="geometricPrecision" stroke-miterlimit="1.45" shape-rendering="geometricPrecision" transform="matrix(1,0,0,1,-5,15)" stroke-linecap="butt">
        <path fill="none" d="M635.5 488 L635.5 503.5 L477.75 503.5 L477.75 510.9697"/>
        <path d="M477.75 518.9697 L482.75 506.9697 L477.75 509.9697 L472.75 506.9697 Z" stroke="none"/>
      </g>
    </g>
  </g>
</svg>
