<?xml version="1.0" encoding="UTF-8"?><svg xmlns="http://www.w3.org/2000/svg" xmlns:xlink="http://www.w3.org/1999/xlink" fill-opacity="1" color-rendering="auto" color-interpolation="auto" text-rendering="auto" stroke="black" stroke-linecap="square" width="600" stroke-miterlimit="10" shape-rendering="auto" stroke-opacity="1" fill="black" stroke-dasharray="none" font-weight="normal" stroke-width="1" height="352" font-family="'Dialog'" font-style="normal" stroke-linejoin="miter" font-size="12px" stroke-dashoffset="0" image-rendering="auto">
  <!--Generated by ySVG 2.6-->
  <defs id="genericDefs"/>
  <g>
    <defs id="defs1">
      <linearGradient x1="360" gradientUnits="userSpaceOnUse" x2="440" y1="182" y2="182" id="linearGradient1" spreadMethod="reflect">
        <stop stop-opacity="1" stop-color="rgb(31,119,180)" offset="0%"/>
        <stop stop-opacity="1" stop-color="rgb(14,38,209)" offset="100%"/>
      </linearGradient>
      <linearGradient x1="510" gradientUnits="userSpaceOnUse" x2="590" y1="182" y2="182" id="linearGradient2" spreadMethod="reflect">
        <stop stop-opacity="1" stop-color="rgb(31,119,180)" offset="0%"/>
        <stop stop-opacity="1" stop-color="rgb(14,38,209)" offset="100%"/>
      </linearGradient>
      <linearGradient x1="60" gradientUnits="userSpaceOnUse" x2="140" y1="182" y2="182" id="linearGradient3" spreadMethod="reflect">
        <stop stop-opacity="1" stop-color="rgb(14,38,209)" offset="0%"/>
        <stop stop-opacity="1" stop-color="rgb(204,153,255)" offset="100%"/>
      </linearGradient>
      <linearGradient x1="60" gradientUnits="userSpaceOnUse" x2="140" y1="262" y2="262" id="linearGradient4" spreadMethod="reflect">
        <stop stop-opacity="1" stop-color="rgb(14,38,209)" offset="0%"/>
        <stop stop-opacity="1" stop-color="rgb(127,127,127)" offset="100%"/>
      </linearGradient>
      <clipPath clipPathUnits="userSpaceOnUse" id="clipPath1">
        <path d="M0 0 L600 0 L600 352 L0 352 L0 0 Z"/>
      </clipPath>
      <clipPath clipPathUnits="userSpaceOnUse" id="clipPath2">
        <path d="M5 -15 L605 -15 L605 337 L5 337 L5 -15 Z"/>
      </clipPath>
    </defs>
    <g fill="white" text-rendering="geometricPrecision" shape-rendering="geometricPrecision" transform="translate(-5,15)" stroke="white">
      <rect x="5" width="600" height="352" y="-15" clip-path="url(#clipPath2)" stroke="none"/>
    </g>
    <g id="y.node.0">
      <a target="_blank" xlink:type="simple" xlink:href="https://ims.tau.ac.il/tal/kr/search_l.aspx?course_num=05124161&amp;year=2025&amp;lang=HE" xlink:show="new">
        <g fill="url(#linearGradient1)" text-rendering="geometricPrecision" shape-rendering="geometricPrecision" transform="matrix(1,0,0,1,-5,15)" stroke="url(#linearGradient1)">
          <rect x="320" y="182" width="120" rx="4" ry="4" height="60" stroke="none"/>
        </g>
        <g stroke-linecap="butt" transform="matrix(1,0,0,1,-5,15)" fill="red" text-rendering="geometricPrecision" shape-rendering="geometricPrecision" stroke="red" stroke-width="6" stroke-miterlimit="1.45">
          <rect x="320" y="182" fill="none" width="120" rx="4" ry="4" height="60"/>
        </g>
        <g>
          <g text-rendering="geometricPrecision" stroke-miterlimit="1.45" shape-rendering="geometricPrecision" font-family="'David'" transform="matrix(1,0,0,1,-5,15)" stroke-linecap="butt">
            <text x="342.1514" xml:space="preserve" y="214.915" stroke="none">תקשורת ספרתית</text>
          </g>
        </g>
      </a>
    </g>
    <g id="y.node.1">
      <a target="_blank" xlink:type="simple" xlink:href="https://ims.tau.ac.il/tal/kr/search_l.aspx?course_num=05124100&amp;year=2025&amp;lang=HE" xlink:show="new">
        <g fill="url(#linearGradient2)" text-rendering="geometricPrecision" shape-rendering="geometricPrecision" transform="matrix(1,0,0,1,-5,15)" stroke="url(#linearGradient2)">
          <rect x="470" y="182" width="120" rx="4" ry="4" height="60" stroke="none"/>
        </g>
        <g text-rendering="geometricPrecision" stroke-miterlimit="1.45" shape-rendering="geometricPrecision" transform="matrix(1,0,0,1,-5,15)" stroke-linecap="butt">
          <rect x="470" y="182" fill="none" width="120" rx="4" ry="4" height="60"/>
        </g>
        <g>
          <g text-rendering="geometricPrecision" stroke-miterlimit="1.45" shape-rendering="geometricPrecision" font-family="'David'" transform="matrix(1,0,0,1,-5,15)" stroke-linecap="butt">
            <text x="492.8164" xml:space="preserve" y="214.915" stroke="none">מערכות תקשורת</text>
          </g>
        </g>
      </a>
    </g>
    <g id="y.node.2">
      <a target="_blank" xlink:type="simple" xlink:href="https://ims.tau.ac.il/tal/kr/search_l.aspx?course_num=05122532&amp;year=2025&amp;lang=HE" xlink:show="new">
        <g fill="rgb(255,204,0)" text-rendering="geometricPrecision" shape-rendering="geometricPrecision" transform="matrix(1,0,0,1,-5,15)" stroke="rgb(255,204,0)">
          <rect x="395" y="91" width="120" rx="4" ry="4" height="60" stroke="none"/>
        </g>
        <g text-rendering="geometricPrecision" stroke-miterlimit="1.45" shape-rendering="geometricPrecision" transform="matrix(1,0,0,1,-5,15)" stroke-linecap="butt">
          <rect x="395" y="91" fill="none" width="120" rx="4" ry="4" height="60"/>
        </g>
        <g>
          <g text-rendering="geometricPrecision" stroke-miterlimit="1.45" shape-rendering="geometricPrecision" font-family="'David'" transform="matrix(1,0,0,1,-5,15)" stroke-linecap="butt">
            <text x="418.9795" xml:space="preserve" y="118.0117" stroke="none">אותות אקראיים</text>
            <text x="444.043" xml:space="preserve" y="129.8184" stroke="none">ורעש</text>
          </g>
        </g>
      </a>
    </g>
    <g id="y.node.3">
      <a target="_blank" xlink:type="simple" xlink:href="https://ims.tau.ac.il/tal/kr/search_l.aspx?course_num=05124125&amp;year=2025&amp;lang=HE" xlink:show="new">
        <g fill="url(#linearGradient3)" text-rendering="geometricPrecision" shape-rendering="geometricPrecision" transform="matrix(1,0,0,1,-5,15)" stroke="url(#linearGradient3)">
          <rect x="20" y="182" width="120" rx="4" ry="4" height="60" stroke="none"/>
        </g>
        <g text-rendering="geometricPrecision" stroke-miterlimit="1.45" shape-rendering="geometricPrecision" transform="matrix(1,0,0,1,-5,15)" stroke-linecap="butt">
          <rect x="20" y="182" fill="none" width="120" rx="4" ry="4" height="60"/>
        </g>
        <g>
          <g stroke-linecap="butt" transform="matrix(1,0,0,1,-5,15)" fill="white" text-rendering="geometricPrecision" font-family="'David'" shape-rendering="geometricPrecision" stroke="white" stroke-miterlimit="1.45">
            <text x="40.8271" xml:space="preserve" y="209.0117" stroke="none">מבוא לטכנולוגיות</text>
            <text x="59.0879" xml:space="preserve" y="220.8184" stroke="none"> קוונטיות</text>
          </g>
        </g>
      </a>
    </g>
    <g id="y.node.4">
      <a target="_blank" xlink:type="simple" xlink:href="https://ims.tau.ac.il/tal/kr/search_l.aspx?course_num=05124126&amp;year=2025&amp;lang=HE" xlink:show="new">
        <g fill="url(#linearGradient4)" text-rendering="geometricPrecision" shape-rendering="geometricPrecision" transform="matrix(1,0,0,1,-5,15)" stroke="url(#linearGradient4)">
          <rect x="20" y="262" width="120" rx="4" ry="4" height="60" stroke="none"/>
        </g>
        <g text-rendering="geometricPrecision" stroke-miterlimit="1.45" shape-rendering="geometricPrecision" transform="matrix(1,0,0,1,-5,15)" stroke-linecap="butt">
          <rect x="20" y="262" fill="none" width="120" rx="4" ry="4" height="60"/>
        </g>
        <g>
          <g stroke-linecap="butt" transform="matrix(1,0,0,1,-5,15)" fill="white" text-rendering="geometricPrecision" font-family="'David'" shape-rendering="geometricPrecision" stroke="white" stroke-miterlimit="1.45">
            <text x="43.3145" xml:space="preserve" y="289.0117" stroke="none">מעבדה מתקדמת</text>
            <text x="45.1455" xml:space="preserve" y="300.8184" stroke="none"> במחשוב קוונטי</text>
          </g>
        </g>
      </a>
    </g>
    <g id="y.node.5">
      <a target="_blank" xlink:type="simple" xlink:href="https://ims.tau.ac.il/tal/kr/search_l.aspx?course_num=05122830&amp;year=2025&amp;lang=HE" xlink:show="new">
        <g fill="rgb(255,204,0)" text-rendering="geometricPrecision" shape-rendering="geometricPrecision" transform="matrix(1,0,0,1,-5,15)" stroke="rgb(255,204,0)">
          <rect x="50" y="0" width="120" rx="4" ry="4" height="60" stroke="none"/>
        </g>
        <g text-rendering="geometricPrecision" stroke-miterlimit="1.45" shape-rendering="geometricPrecision" transform="matrix(1,0,0,1,-5,15)" stroke-linecap="butt">
          <rect x="50" y="0" fill="none" width="120" rx="4" ry="4" height="60"/>
        </g>
        <g>
          <g text-rendering="geometricPrecision" stroke-miterlimit="1.45" shape-rendering="geometricPrecision" font-family="'David'" transform="matrix(1,0,0,1,-5,15)" stroke-linecap="butt">
            <text x="72.1543" xml:space="preserve" y="27.0117" stroke="none">פיזיקה קוואנטית</text>
            <text x="85.7656" xml:space="preserve" y="38.8184" stroke="none">ומצב מוצק</text>
          </g>
        </g>
      </a>
    </g>
    <g id="y.node.6">
      <a target="_blank" xlink:type="simple" xlink:href="https://ims.tau.ac.il/tal/kr/search_l.aspx?course_num=05105004&amp;year=2025&amp;lang=HE" xlink:show="new">
        <g fill="rgb(14,38,209)" text-rendering="geometricPrecision" shape-rendering="geometricPrecision" transform="matrix(1,0,0,1,-5,15)" stroke="rgb(14,38,209)">
          <rect x="170" y="182" width="120" rx="4" ry="4" height="60" stroke="none"/>
        </g>
        <g stroke-linecap="butt" transform="matrix(1,0,0,1,-5,15)" fill="fuchsia" text-rendering="geometricPrecision" shape-rendering="geometricPrecision" stroke-dasharray="30,10" stroke="fuchsia" stroke-width="5" stroke-miterlimit="1.45">
          <rect x="170" y="182" fill="none" width="120" rx="4" ry="4" height="60"/>
        </g>
        <g>
          <g stroke-linecap="butt" transform="matrix(1,0,0,1,-5,15)" fill="white" text-rendering="geometricPrecision" font-family="'David'" shape-rendering="geometricPrecision" stroke="white" stroke-miterlimit="1.45">
            <text x="182.6943" xml:space="preserve" y="214.915" stroke="none">אלקטרוניקה קוונטית</text>
          </g>
        </g>
      </a>
    </g>
    <g id="y.node.7">
      <a target="_blank" xlink:type="simple" xlink:href="https://ims.tau.ac.il/tal/kr/search_l.aspx?course_num=05122508&amp;year=2025&amp;lang=HE" xlink:show="new">
        <g fill="rgb(255,204,0)" text-rendering="geometricPrecision" shape-rendering="geometricPrecision" transform="matrix(1,0,0,1,-5,15)" stroke="rgb(255,204,0)">
          <rect x="200" y="91" width="120" rx="4" ry="4" height="60" stroke="none"/>
        </g>
        <g text-rendering="geometricPrecision" stroke-miterlimit="1.45" shape-rendering="geometricPrecision" transform="matrix(1,0,0,1,-5,15)" stroke-linecap="butt">
          <rect x="200" y="91" fill="none" width="120" rx="4" ry="4" height="60"/>
        </g>
        <g>
          <g text-rendering="geometricPrecision" stroke-miterlimit="1.45" shape-rendering="geometricPrecision" font-family="'David'" transform="matrix(1,0,0,1,-5,15)" stroke-linecap="butt">
            <text x="242.4043" xml:space="preserve" y="118.0117" stroke="none">התקנים</text>
            <text x="231.7812" xml:space="preserve" y="129.8184" stroke="none"> אלקטרוניים</text>
          </g>
        </g>
      </a>
    </g>
    <g id="y.edge.0">
      <g text-rendering="geometricPrecision" stroke-miterlimit="1.45" shape-rendering="geometricPrecision" transform="matrix(1,0,0,1,-5,15)" stroke-linecap="butt">
        <path fill="none" d="M425 151 L425 166.5 L380 166.5 L380 173.9697"/>
        <path d="M380 181.9697 L385 169.9697 L380 172.9697 L375 169.9697 Z" stroke="none"/>
      </g>
    </g>
    <g id="y.edge.1">
      <g text-rendering="geometricPrecision" stroke-miterlimit="1.45" shape-rendering="geometricPrecision" transform="matrix(1,0,0,1,-5,15)" stroke-linecap="butt">
        <path fill="none" d="M485 151 L485 166.5 L530 166.5 L530 173.9697"/>
        <path d="M530 181.9697 L535 169.9697 L530 172.9697 L525 169.9697 Z" stroke="none"/>
      </g>
    </g>
    <g id="y.edge.2">
      <g text-rendering="geometricPrecision" stroke-miterlimit="1.45" shape-rendering="geometricPrecision" transform="matrix(1,0,0,1,-5,15)" stroke-linecap="butt">
        <path fill="none" d="M80 242 L80 253.9609"/>
        <path d="M80 261.9609 L85 249.9609 L80 252.9609 L75 249.9609 Z" stroke="none"/>
      </g>
    </g>
    <g id="y.edge.3">
      <g text-rendering="geometricPrecision" stroke-miterlimit="1.45" shape-rendering="geometricPrecision" transform="matrix(1,0,0,1,-5,15)" stroke-linecap="butt">
        <path fill="none" d="M80 60 L80 173.9702"/>
        <path d="M80 181.9702 L85 169.9702 L80 172.9702 L75 169.9702 Z" stroke="none"/>
      </g>
    </g>
    <g id="y.edge.5">
      <g text-rendering="geometricPrecision" stroke-miterlimit="1.45" shape-rendering="geometricPrecision" transform="matrix(1,0,0,1,-5,15)" stroke-linecap="butt">
        <path fill="none" d="M140 60 L140 75.5 L184.5 75.5 L184.5 166.5 L200 166.5 L200 173.9697"/>
        <path d="M200 181.9697 L205 169.9697 L200 172.9697 L195 169.9697 Z" stroke="none"/>
      </g>
    </g>
    <g id="y.edge.4">
      <g text-rendering="geometricPrecision" stroke-miterlimit="1.45" shape-rendering="geometricPrecision" transform="matrix(1,0,0,1,-5,15)" stroke-linecap="butt">
        <path fill="none" d="M260 151 L260 173.9697"/>
        <path d="M260 181.9697 L265 169.9697 L260 172.9697 L255 169.9697 Z" stroke="none"/>
      </g>
    </g>
  </g>
</svg>
