<?xml version="1.0" encoding="UTF-8"?><svg xmlns="http://www.w3.org/2000/svg" xmlns:xlink="http://www.w3.org/1999/xlink" fill-opacity="1" color-rendering="auto" color-interpolation="auto" text-rendering="auto" stroke="black" stroke-linecap="square" width="470" stroke-miterlimit="10" shape-rendering="auto" stroke-opacity="1" fill="black" stroke-dasharray="none" font-weight="normal" stroke-width="1" height="211" font-family="'Dialog'" font-style="normal" stroke-linejoin="miter" font-size="12px" stroke-dashoffset="0" image-rendering="auto">
  <!--Generated by ySVG 2.6-->
  <defs id="genericDefs"/>
  <g>
    <defs id="defs1">
      <clipPath clipPathUnits="userSpaceOnUse" id="clipPath1">
        <path d="M0 0 L470 0 L470 211 L0 211 L0 0 Z"/>
      </clipPath>
      <clipPath clipPathUnits="userSpaceOnUse" id="clipPath2">
        <path d="M495 229 L965 229 L965 440 L495 440 L495 229 Z"/>
      </clipPath>
    </defs>
    <g fill="white" text-rendering="geometricPrecision" shape-rendering="geometricPrecision" transform="translate(-495,-229)" stroke="white">
      <rect x="495" width="470" height="211" y="229" clip-path="url(#clipPath2)" stroke="none"/>
    </g>
    <g id="y.node.0">
      <a target="_blank" xlink:type="simple" xlink:href="https://ims.tau.ac.il/tal/kr/search_l.aspx?course_num=05124013&amp;year=2025&amp;lang=HE" xlink:show="new">
        <g fill="rgb(204,153,255)" text-rendering="geometricPrecision" shape-rendering="geometricPrecision" transform="matrix(1,0,0,1,-495,-229)" stroke="rgb(204,153,255)">
          <rect x="830" y="244" width="120" rx="4" ry="4" height="60" stroke="none"/>
        </g>
        <g text-rendering="geometricPrecision" stroke-miterlimit="1.45" shape-rendering="geometricPrecision" transform="matrix(1,0,0,1,-495,-229)" stroke-linecap="butt">
          <rect x="830" y="244" fill="none" width="120" rx="4" ry="4" height="60"/>
        </g>
        <g>
          <g text-rendering="geometricPrecision" stroke-miterlimit="1.45" shape-rendering="geometricPrecision" font-family="'David'" transform="matrix(1,0,0,1,-495,-229)" stroke-linecap="butt">
            <text x="874.8945" xml:space="preserve" y="271.0117" stroke="none">מעבדה</text>
            <text x="856.4697" xml:space="preserve" y="282.8184" stroke="none">חשיפה לחומרה</text>
          </g>
        </g>
      </a>
    </g>
    <g id="y.node.1">
      <a target="_blank" xlink:type="simple" xlink:href="https://ims.tau.ac.il/tal/kr/search_l.aspx?course_num=05123000&amp;year=2025&amp;lang=HE" xlink:show="new">
        <g fill="rgb(204,153,255)" text-rendering="geometricPrecision" shape-rendering="geometricPrecision" transform="matrix(1,0,0,1,-495,-229)" stroke="rgb(204,153,255)">
          <rect x="830" y="304" width="120" rx="4" ry="4" height="60" stroke="none"/>
        </g>
        <g text-rendering="geometricPrecision" stroke-miterlimit="1.45" shape-rendering="geometricPrecision" transform="matrix(1,0,0,1,-495,-229)" stroke-linecap="butt">
          <rect x="830" y="304" fill="none" width="120" rx="4" ry="4" height="60"/>
        </g>
        <g>
          <g text-rendering="geometricPrecision" stroke-miterlimit="1.45" shape-rendering="geometricPrecision" font-family="'David'" transform="matrix(1,0,0,1,-495,-229)" stroke-linecap="butt">
            <text x="859.2939" xml:space="preserve" y="336.915" stroke="none">פרויקט מיוחד</text>
          </g>
        </g>
      </a>
    </g>
    <g id="y.node.2">
      <a target="_blank" xlink:type="simple" xlink:href="https://ims.tau.ac.il/tal/kr/search_l.aspx?course_num=05094010&amp;year=2025&amp;lang=HE" xlink:show="new">
        <g fill="rgb(204,153,255)" text-rendering="geometricPrecision" shape-rendering="geometricPrecision" transform="matrix(1,0,0,1,-495,-229)" stroke="rgb(204,153,255)">
          <rect x="830" y="364" width="120" rx="4" ry="4" height="60" stroke="none"/>
        </g>
        <g text-rendering="geometricPrecision" stroke-miterlimit="1.45" shape-rendering="geometricPrecision" transform="matrix(1,0,0,1,-495,-229)" stroke-linecap="butt">
          <rect x="830" y="364" fill="none" width="120" rx="4" ry="4" height="60"/>
        </g>
        <g>
          <g text-rendering="geometricPrecision" stroke-miterlimit="1.45" shape-rendering="geometricPrecision" font-family="'David'" transform="matrix(1,0,0,1,-495,-229)" stroke-linecap="butt">
            <text x="845.0264" xml:space="preserve" y="391.0117" stroke="none">ננו לווינים- בין חינוך</text>
            <text x="838.5371" xml:space="preserve" y="402.8184" stroke="none"> למדעים למהפכת החלל</text>
          </g>
        </g>
      </a>
    </g>
    <g id="y.node.3">
      <g>
        <g text-rendering="geometricPrecision" stroke-miterlimit="1.45" shape-rendering="geometricPrecision" font-family="sans-serif" transform="matrix(1,0,0,1,-495,-229)" stroke-linecap="butt">
          <text x="555.777" xml:space="preserve" y="271.3633" stroke="none">תלמידי שנה א (סמסטר ב) או שנה ב (סמסבטר א)</text>
          <text x="583.9928" xml:space="preserve" y="286.0645" stroke="none">עמדו בכל חובות התכנית, ממוצע +85</text>
        </g>
      </g>
    </g>
    <g id="y.node.4">
      <g>
        <g text-rendering="geometricPrecision" stroke-miterlimit="1.45" shape-rendering="geometricPrecision" font-family="sans-serif" transform="matrix(1,0,0,1,-495,-229)" stroke-linecap="butt">
          <text x="608.7633" xml:space="preserve" y="331.3633" stroke="none">אפשר להירשם מסמסטר 3</text>
          <text x="549.1881" xml:space="preserve" y="346.0645" stroke="none">הרישום יתבצע ידנית בנפוף להמלצת מנחה הפרוייקט</text>
        </g>
      </g>
    </g>
    <g id="y.node.5">
      <g>
        <g text-rendering="geometricPrecision" stroke-miterlimit="1.45" shape-rendering="geometricPrecision" font-family="sans-serif" transform="matrix(1,0,0,1,-495,-229)" stroke-linecap="butt">
          <text x="615.027" xml:space="preserve" y="391.3633" stroke="none">ניתן לנירשם רק בשנה ד</text>
          <text x="527.0895" xml:space="preserve" y="406.0645" stroke="none">יש לעמוד בממוצע של +85 ולעבור ראיון קבלה לאישור הרשמה</text>
        </g>
      </g>
    </g>
  </g>
</svg>
