<?xml version="1.0" encoding="UTF-8"?><svg xmlns="http://www.w3.org/2000/svg" xmlns:xlink="http://www.w3.org/1999/xlink" fill-opacity="1" color-rendering="auto" color-interpolation="auto" text-rendering="auto" stroke="black" stroke-linecap="square" width="886" stroke-miterlimit="10" shape-rendering="auto" stroke-opacity="1" fill="black" stroke-dasharray="none" font-weight="normal" stroke-width="1" height="448" font-family="'Dialog'" font-style="normal" stroke-linejoin="miter" font-size="12px" stroke-dashoffset="0" image-rendering="auto">
  <!--Generated by ySVG 2.6-->
  <defs id="genericDefs"/>
  <g>
    <defs id="defs1">
      <linearGradient x1="630.5" gradientUnits="userSpaceOnUse" x2="710.5" y1="160" y2="160" id="linearGradient1" spreadMethod="reflect">
        <stop stop-opacity="1" stop-color="rgb(23,190,207)" offset="0%"/>
        <stop stop-opacity="1" stop-color="rgb(44,160,44)" offset="100%"/>
      </linearGradient>
      <linearGradient x1="315.5" gradientUnits="userSpaceOnUse" x2="395.5" y1="267" y2="267" id="linearGradient2" spreadMethod="reflect">
        <stop stop-opacity="1" stop-color="rgb(23,190,207)" offset="0%"/>
        <stop stop-opacity="1" stop-color="rgb(148,103,189)" offset="100%"/>
      </linearGradient>
      <linearGradient x1="615.5" gradientUnits="userSpaceOnUse" x2="695.5" y1="267" y2="267" id="linearGradient3" spreadMethod="reflect">
        <stop stop-opacity="1" stop-color="rgb(255,127,14)" offset="0%"/>
        <stop stop-opacity="1" stop-color="rgb(23,190,207)" offset="100%"/>
      </linearGradient>
      <linearGradient x1="765.5" gradientUnits="userSpaceOnUse" x2="845.5" y1="267" y2="267" id="linearGradient4" spreadMethod="reflect">
        <stop stop-opacity="1" stop-color="rgb(31,119,180)" offset="0%"/>
        <stop stop-opacity="1" stop-color="rgb(23,190,207)" offset="100%"/>
      </linearGradient>
      <linearGradient x1="165.5" gradientUnits="userSpaceOnUse" x2="245.5" y1="267" y2="267" id="linearGradient5" spreadMethod="reflect">
        <stop stop-opacity="1" stop-color="rgb(23,190,207)" offset="0%"/>
        <stop stop-opacity="1" stop-color="rgb(44,160,44)" offset="100%"/>
      </linearGradient>
      <clipPath clipPathUnits="userSpaceOnUse" id="clipPath1">
        <path d="M0 0 L886 0 L886 448 L0 448 L0 0 Z"/>
      </clipPath>
      <clipPath clipPathUnits="userSpaceOnUse" id="clipPath2">
        <path d="M5 -15 L891 -15 L891 433 L5 433 L5 -15 Z"/>
      </clipPath>
    </defs>
    <g fill="white" text-rendering="geometricPrecision" shape-rendering="geometricPrecision" transform="translate(-5,15)" stroke="white">
      <rect x="5" width="886" height="448" y="-15" clip-path="url(#clipPath2)" stroke="none"/>
    </g>
    <g id="y.node.0">
      <a target="_blank" xlink:type="simple" xlink:href="https://ims.tau.ac.il/tal/kr/search_l.aspx?course_num=05107650&amp;year=2025&amp;lang=HE" xlink:show="new">
        <g fill="rgb(23,190,207)" text-rendering="geometricPrecision" shape-rendering="geometricPrecision" transform="matrix(1,0,0,1,-5,15)" stroke="rgb(23,190,207)">
          <rect x="20" y="160" width="120" rx="4" ry="4" height="60" stroke="none"/>
        </g>
        <g text-rendering="geometricPrecision" stroke-miterlimit="1.45" shape-rendering="geometricPrecision" transform="matrix(1,0,0,1,-5,15)" stroke-linecap="butt">
          <rect x="20" y="160" fill="none" width="120" rx="4" ry="4" height="60"/>
        </g>
        <g>
          <g text-rendering="geometricPrecision" stroke-miterlimit="1.45" shape-rendering="geometricPrecision" font-family="'David'" transform="matrix(1,0,0,1,-5,15)" stroke-linecap="butt">
            <text x="50.9492" xml:space="preserve" y="187.0117" stroke="none">אופטיקה של </text>
            <text x="36.1807" xml:space="preserve" y="198.8184" stroke="none">חומרים דו-מימדיים</text>
          </g>
        </g>
      </a>
    </g>
    <g id="y.node.1">
      <a target="_blank" xlink:type="simple" xlink:href="https://ims.tau.ac.il/tal/kr/search_l.aspx?course_num=05124605&amp;year=2025&amp;lang=HE" xlink:show="new">
        <g fill="rgb(23,190,207)" text-rendering="geometricPrecision" shape-rendering="geometricPrecision" transform="matrix(1,0,0,1,-5,15)" stroke="rgb(23,190,207)">
          <rect x="440.5" y="160" width="120" rx="4" ry="4" height="60" stroke="none"/>
        </g>
        <g text-rendering="geometricPrecision" stroke-miterlimit="1.45" shape-rendering="geometricPrecision" transform="matrix(1,0,0,1,-5,15)" stroke-linecap="butt">
          <rect x="440.5" y="160" fill="none" width="120" rx="4" ry="4" height="60"/>
        </g>
        <g>
          <g text-rendering="geometricPrecision" stroke-miterlimit="1.45" shape-rendering="geometricPrecision" font-family="'David'" transform="matrix(1,0,0,1,-5,15)" stroke-linecap="butt">
            <text x="454.3545" xml:space="preserve" y="187.0117" stroke="none">מבוא לאינטראקציית</text>
            <text x="477.5957" xml:space="preserve" y="198.8184" stroke="none"> אור-חומר</text>
          </g>
        </g>
      </a>
    </g>
    <g id="y.node.2">
      <a target="_blank" xlink:type="simple" xlink:href="https://ims.tau.ac.il/tal/kr/search_l.aspx?course_num=05122830&amp;year=2025&amp;lang=HE" xlink:show="new">
        <g fill="rgb(255,204,0)" text-rendering="geometricPrecision" shape-rendering="geometricPrecision" transform="matrix(1,0,0,1,-5,15)" stroke="rgb(255,204,0)">
          <rect x="268" y="0" width="120" rx="4" ry="4" height="60" stroke="none"/>
        </g>
        <g text-rendering="geometricPrecision" stroke-miterlimit="1.45" shape-rendering="geometricPrecision" transform="matrix(1,0,0,1,-5,15)" stroke-linecap="butt">
          <rect x="268" y="0" fill="none" width="120" rx="4" ry="4" height="60"/>
        </g>
        <g>
          <g text-rendering="geometricPrecision" stroke-miterlimit="1.45" shape-rendering="geometricPrecision" font-family="'David'" transform="matrix(1,0,0,1,-5,15)" stroke-linecap="butt">
            <text x="290.1543" xml:space="preserve" y="27.0117" stroke="none">פיזיקה קוואנטית</text>
            <text x="303.7656" xml:space="preserve" y="38.8184" stroke="none">ומצב מוצק</text>
          </g>
        </g>
      </a>
    </g>
    <g id="y.node.3">
      <a target="_blank" xlink:type="simple" xlink:href="https://ims.tau.ac.il/tal/kr/search_l.aspx?course_num=05124704&amp;year=2025&amp;lang=HE" xlink:show="new">
        <g fill="url(#linearGradient1)" text-rendering="geometricPrecision" shape-rendering="geometricPrecision" transform="matrix(1,0,0,1,-5,15)" stroke="url(#linearGradient1)">
          <rect x="590.5" y="160" width="120" rx="4" ry="4" height="60" stroke="none"/>
        </g>
        <g text-rendering="geometricPrecision" stroke-miterlimit="1.45" shape-rendering="geometricPrecision" transform="matrix(1,0,0,1,-5,15)" stroke-linecap="butt">
          <rect x="590.5" y="160" fill="none" width="120" rx="4" ry="4" height="60"/>
        </g>
        <g>
          <g text-rendering="geometricPrecision" stroke-miterlimit="1.45" shape-rendering="geometricPrecision" font-family="'David'" transform="matrix(1,0,0,1,-5,15)" stroke-linecap="butt">
            <text x="617.3008" xml:space="preserve" y="187.0117" stroke="none">מבוא להתקנים</text>
            <text x="607.0088" xml:space="preserve" y="198.8184" stroke="none"> אופטו-אלקטרוניים</text>
          </g>
        </g>
      </a>
    </g>
    <g id="y.node.4">
      <a target="_blank" xlink:type="simple" xlink:href="https://ims.tau.ac.il/tal/kr/search_l.aspx?course_num=05122508&amp;year=2025&amp;lang=HE" xlink:show="new">
        <g fill="rgb(255,204,0)" text-rendering="geometricPrecision" shape-rendering="geometricPrecision" transform="matrix(1,0,0,1,-5,15)" stroke="rgb(255,204,0)">
          <rect x="590.5" y="80" width="120" rx="4" ry="4" height="60" stroke="none"/>
        </g>
        <g text-rendering="geometricPrecision" stroke-miterlimit="1.45" shape-rendering="geometricPrecision" transform="matrix(1,0,0,1,-5,15)" stroke-linecap="butt">
          <rect x="590.5" y="80" fill="none" width="120" rx="4" ry="4" height="60"/>
        </g>
        <g>
          <g text-rendering="geometricPrecision" stroke-miterlimit="1.45" shape-rendering="geometricPrecision" font-family="'David'" transform="matrix(1,0,0,1,-5,15)" stroke-linecap="butt">
            <text x="632.9043" xml:space="preserve" y="107.0117" stroke="none">התקנים</text>
            <text x="622.2812" xml:space="preserve" y="118.8184" stroke="none"> אלקטרוניים</text>
          </g>
        </g>
      </a>
    </g>
    <g id="y.node.5">
      <a target="_blank" xlink:type="simple" xlink:href="https://ims.tau.ac.il/tal/kr/search_l.aspx?course_num=05124862&amp;year=2025&amp;lang=HE" xlink:show="new">
        <g fill="url(#linearGradient2)" text-rendering="geometricPrecision" shape-rendering="geometricPrecision" transform="matrix(1,0,0,1,-5,15)" stroke="url(#linearGradient2)">
          <rect x="275.5" y="267" width="120" rx="4" ry="4" height="60" stroke="none"/>
        </g>
        <g text-rendering="geometricPrecision" stroke-miterlimit="1.45" shape-rendering="geometricPrecision" transform="matrix(1,0,0,1,-5,15)" stroke-linecap="butt">
          <rect x="275.5" y="267" fill="none" width="120" rx="4" ry="4" height="60"/>
        </g>
        <g>
          <g text-rendering="geometricPrecision" stroke-miterlimit="1.45" shape-rendering="geometricPrecision" font-family="'David'" transform="matrix(1,0,0,1,-5,15)" stroke-linecap="butt">
            <text x="287.6904" xml:space="preserve" y="299.915" stroke="none">התפשטות ופיזור גלים</text>
          </g>
        </g>
      </a>
    </g>
    <g id="y.node.6">
      <a target="_blank" xlink:type="simple" xlink:href="https://ims.tau.ac.il/tal/kr/search_l.aspx?course_num=05123526&amp;year=2025&amp;lang=HE" xlink:show="new">
        <g fill="rgb(255,204,0)" text-rendering="geometricPrecision" shape-rendering="geometricPrecision" transform="matrix(1,0,0,1,-5,15)" stroke="rgb(255,204,0)">
          <rect x="290.5" y="160" width="120" rx="4" ry="4" height="60" stroke="none"/>
        </g>
        <g text-rendering="geometricPrecision" stroke-miterlimit="1.45" shape-rendering="geometricPrecision" transform="matrix(1,0,0,1,-5,15)" stroke-linecap="butt">
          <rect x="290.5" y="160" fill="none" width="120" rx="4" ry="4" height="60"/>
        </g>
        <g>
          <g text-rendering="geometricPrecision" stroke-miterlimit="1.45" shape-rendering="geometricPrecision" font-family="'David'" transform="matrix(1,0,0,1,-5,15)" stroke-linecap="butt">
            <text x="320.4531" xml:space="preserve" y="187.0117" stroke="none">תמסורת גלים</text>
            <text x="312.3203" xml:space="preserve" y="198.8184" stroke="none">ומערכות מפולגות</text>
          </g>
        </g>
      </a>
    </g>
    <g id="y.node.7">
      <a target="_blank" xlink:type="simple" xlink:href="https://ims.tau.ac.il/tal/kr/search_l.aspx?course_num=05124660&amp;year=2025&amp;lang=HE" xlink:show="new">
        <g fill="rgb(23,190,207)" text-rendering="geometricPrecision" shape-rendering="geometricPrecision" transform="matrix(1,0,0,1,-5,15)" stroke="rgb(23,190,207)">
          <rect x="425.5" y="267" width="120" rx="4" ry="4" height="60" stroke="none"/>
        </g>
        <g text-rendering="geometricPrecision" stroke-miterlimit="1.45" shape-rendering="geometricPrecision" transform="matrix(1,0,0,1,-5,15)" stroke-linecap="butt">
          <rect x="425.5" y="267" fill="none" width="120" rx="4" ry="4" height="60"/>
        </g>
        <g>
          <g text-rendering="geometricPrecision" stroke-miterlimit="1.45" shape-rendering="geometricPrecision" font-family="'David'" transform="matrix(1,0,0,1,-5,15)" stroke-linecap="butt">
            <text x="445.6592" xml:space="preserve" y="299.915" stroke="none">אופטיקה קלאסית</text>
          </g>
        </g>
      </a>
    </g>
    <g id="y.node.8">
      <a target="_blank" xlink:type="simple" xlink:href="https://ims.tau.ac.il/tal/kr/search_l.aspx?course_num=05107255&amp;year=2025&amp;lang=HE" xlink:show="new">
        <g fill="url(#linearGradient3)" text-rendering="geometricPrecision" shape-rendering="geometricPrecision" transform="matrix(1,0,0,1,-5,15)" stroke="url(#linearGradient3)">
          <rect x="575.5" y="267" width="120" rx="4" ry="4" height="60" stroke="none"/>
        </g>
        <g text-rendering="geometricPrecision" stroke-miterlimit="1.45" shape-rendering="geometricPrecision" transform="matrix(1,0,0,1,-5,15)" stroke-linecap="butt">
          <rect x="575.5" y="267" fill="none" width="120" rx="4" ry="4" height="60"/>
        </g>
        <g>
          <g text-rendering="geometricPrecision" stroke-miterlimit="1.45" shape-rendering="geometricPrecision" font-family="'David'" transform="matrix(1,0,0,1,-5,15)" stroke-linecap="butt">
            <text x="585.376" xml:space="preserve" y="294.0117" stroke="none">מערכות הדמייה ועיבוד</text>
            <text x="597.4873" xml:space="preserve" y="305.8184" stroke="none"> אופטי של נתונים</text>
          </g>
        </g>
      </a>
    </g>
    <g id="y.node.9">
      <a target="_blank" xlink:type="simple" xlink:href="https://ims.tau.ac.il/tal/kr/search_l.aspx?course_num=05124670&amp;year=2025&amp;lang=HE" xlink:show="new">
        <g fill="rgb(23,190,207)" text-rendering="geometricPrecision" shape-rendering="geometricPrecision" transform="matrix(1,0,0,1,-5,15)" stroke="rgb(23,190,207)">
          <rect x="350.5" y="358" width="120" rx="4" ry="4" height="60" stroke="none"/>
        </g>
        <g text-rendering="geometricPrecision" stroke-miterlimit="1.45" shape-rendering="geometricPrecision" transform="matrix(1,0,0,1,-5,15)" stroke-linecap="butt">
          <rect x="350.5" y="358" fill="none" width="120" rx="4" ry="4" height="60"/>
        </g>
        <g>
          <g text-rendering="geometricPrecision" stroke-miterlimit="1.45" shape-rendering="geometricPrecision" font-family="'David'" transform="matrix(1,0,0,1,-5,15)" stroke-linecap="butt">
            <text x="376.6387" xml:space="preserve" y="385.0117" stroke="none">נושאים נבחרים</text>
            <text x="364.6855" xml:space="preserve" y="396.8184" stroke="none"> באופטיקה מתקדמת</text>
          </g>
        </g>
      </a>
    </g>
    <g id="y.node.10">
      <a target="_blank" xlink:type="simple" xlink:href="https://ims.tau.ac.il/tal/kr/search_l.aspx?course_num=05106610&amp;year=2025&amp;lang=HE" xlink:show="new">
        <g fill="rgb(23,190,207)" text-rendering="geometricPrecision" shape-rendering="geometricPrecision" transform="matrix(1,0,0,1,-5,15)" stroke="rgb(23,190,207)">
          <rect x="500.5" y="358" width="120" rx="4" ry="4" height="60" stroke="none"/>
        </g>
        <g text-rendering="geometricPrecision" stroke-miterlimit="1.45" shape-rendering="geometricPrecision" transform="matrix(1,0,0,1,-5,15)" stroke-linecap="butt">
          <rect x="500.5" y="358" fill="none" width="120" rx="4" ry="4" height="60"/>
        </g>
        <g>
          <g text-rendering="geometricPrecision" stroke-miterlimit="1.45" shape-rendering="geometricPrecision" font-family="'David'" transform="matrix(1,0,0,1,-5,15)" stroke-linecap="butt">
            <text x="519.335" xml:space="preserve" y="385.0117" stroke="none">התקנים פוטוניים -</text>
            <text x="520" xml:space="preserve" y="396.8184" stroke="none"> עקרונות ויישומים</text>
          </g>
        </g>
      </a>
    </g>
    <g id="y.node.11">
      <a target="_blank" xlink:type="simple" xlink:href="https://ims.tau.ac.il/tal/kr/search_l.aspx?course_num=05124602&amp;year=2025&amp;lang=HE" xlink:show="new">
        <g fill="url(#linearGradient4)" text-rendering="geometricPrecision" shape-rendering="geometricPrecision" transform="matrix(1,0,0,1,-5,15)" stroke="url(#linearGradient4)">
          <rect x="725.5" y="267" width="120" rx="4" ry="4" height="60" stroke="none"/>
        </g>
        <g text-rendering="geometricPrecision" stroke-miterlimit="1.45" shape-rendering="geometricPrecision" transform="matrix(1,0,0,1,-5,15)" stroke-linecap="butt">
          <rect x="725.5" y="267" fill="none" width="120" rx="4" ry="4" height="60"/>
        </g>
        <g>
          <g text-rendering="geometricPrecision" stroke-miterlimit="1.45" shape-rendering="geometricPrecision" font-family="'David'" transform="matrix(1,0,0,1,-5,15)" stroke-linecap="butt">
            <text x="749.8105" xml:space="preserve" y="294.0117" stroke="none">	מבוא לתקשורת </text>
            <text x="768.7334" xml:space="preserve" y="305.8184" stroke="none">אופטית</text>
          </g>
        </g>
      </a>
    </g>
    <g id="y.node.12">
      <a target="_blank" xlink:type="simple" xlink:href="https://ims.tau.ac.il/tal/kr/search_l.aspx?course_num=05122532&amp;year=2025&amp;lang=HE" xlink:show="new">
        <g fill="rgb(255,204,0)" text-rendering="geometricPrecision" shape-rendering="geometricPrecision" transform="matrix(1,0,0,1,-5,15)" stroke="rgb(255,204,0)">
          <rect x="755.5" y="80" width="120" rx="4" ry="4" height="60" stroke="none"/>
        </g>
        <g text-rendering="geometricPrecision" stroke-miterlimit="1.45" shape-rendering="geometricPrecision" transform="matrix(1,0,0,1,-5,15)" stroke-linecap="butt">
          <rect x="755.5" y="80" fill="none" width="120" rx="4" ry="4" height="60"/>
        </g>
        <g>
          <g text-rendering="geometricPrecision" stroke-miterlimit="1.45" shape-rendering="geometricPrecision" font-family="'David'" transform="matrix(1,0,0,1,-5,15)" stroke-linecap="butt">
            <text x="779.4795" xml:space="preserve" y="107.0117" stroke="none">אותות אקראיים</text>
            <text x="804.543" xml:space="preserve" y="118.8184" stroke="none">ורעש</text>
          </g>
        </g>
      </a>
    </g>
    <g id="y.node.13">
      <g fill="url(#linearGradient5)" text-rendering="geometricPrecision" shape-rendering="geometricPrecision" transform="matrix(1,0,0,1,-5,15)" stroke="url(#linearGradient5)">
        <rect x="125.5" y="267" width="120" rx="4" ry="4" height="60" stroke="none"/>
      </g>
      <g text-rendering="geometricPrecision" stroke-miterlimit="1.45" shape-rendering="geometricPrecision" transform="matrix(1,0,0,1,-5,15)" stroke-linecap="butt">
        <rect x="125.5" y="267" fill="none" width="120" rx="4" ry="4" height="60"/>
      </g>
      <g>
        <g text-rendering="geometricPrecision" stroke-miterlimit="1.45" shape-rendering="geometricPrecision" font-family="'David'" transform="matrix(1,0,0,1,-5,15)" stroke-linecap="butt">
          <text x="153.1299" xml:space="preserve" y="299.915" stroke="none">מבוא ללייזרים</text>
        </g>
      </g>
    </g>
    <g id="y.edge.0">
      <g text-rendering="geometricPrecision" stroke-miterlimit="1.45" shape-rendering="geometricPrecision" transform="matrix(1,0,0,1,-5,15)" stroke-linecap="butt">
        <path fill="none" d="M358 60 L358 75.5 L500.5 75.5 L500.5 151.9587"/>
        <path d="M500.5 159.9587 L505.5 147.9587 L500.5 150.9587 L495.5 147.9587 Z" stroke="none"/>
      </g>
    </g>
    <g id="y.edge.1">
      <g text-rendering="geometricPrecision" stroke-miterlimit="1.45" shape-rendering="geometricPrecision" transform="matrix(1,0,0,1,-5,15)" stroke-linecap="butt">
        <path fill="none" d="M650.5 140 L650.5 151.9609"/>
        <path d="M650.5 159.9609 L655.5 147.9609 L650.5 150.9609 L645.5 147.9609 Z" stroke="none"/>
      </g>
    </g>
    <g id="y.edge.2">
      <g text-rendering="geometricPrecision" stroke-miterlimit="1.45" shape-rendering="geometricPrecision" transform="matrix(1,0,0,1,-5,15)" stroke-linecap="butt">
        <path fill="none" d="M335.5 220 L335.5 258.9541"/>
        <path d="M335.5 266.9541 L340.5 254.9541 L335.5 257.9541 L330.5 254.9541 Z" stroke="none"/>
      </g>
    </g>
    <g id="y.edge.3">
      <g text-rendering="geometricPrecision" stroke-miterlimit="1.45" shape-rendering="geometricPrecision" transform="matrix(1,0,0,1,-5,15)" stroke-linecap="butt">
        <path fill="none" d="M365.5 220 L365.5 251.5 L485.5 251.5 L485.5 258.9697"/>
        <path d="M485.5 266.9697 L490.5 254.9697 L485.5 257.9697 L480.5 254.9697 Z" stroke="none"/>
      </g>
    </g>
    <g id="y.edge.4">
      <g text-rendering="geometricPrecision" stroke-miterlimit="1.45" shape-rendering="geometricPrecision" transform="matrix(1,0,0,1,-5,15)" stroke-linecap="butt">
        <path fill="none" d="M545.5 297 L567.4707 297"/>
        <path d="M575.4707 297 L563.4707 292 L566.4707 297 L563.4707 302 Z" stroke="none"/>
      </g>
    </g>
    <g id="y.edge.5">
      <g text-rendering="geometricPrecision" stroke-miterlimit="1.45" shape-rendering="geometricPrecision" transform="matrix(1,0,0,1,-5,15)" stroke-linecap="butt">
        <path fill="none" d="M455.5 327 L455.5 342.5 L410.5 342.5 L410.5 349.9697"/>
        <path d="M410.5 357.9697 L415.5 345.9697 L410.5 348.9697 L405.5 345.9697 Z" stroke="none"/>
      </g>
    </g>
    <g id="y.edge.6">
      <g text-rendering="geometricPrecision" stroke-miterlimit="1.45" shape-rendering="geometricPrecision" transform="matrix(1,0,0,1,-5,15)" stroke-linecap="butt">
        <path fill="none" d="M515.5 327 L515.5 342.5 L560.5 342.5 L560.5 349.9697"/>
        <path d="M560.5 357.9697 L565.5 345.9697 L560.5 348.9697 L555.5 345.9697 Z" stroke="none"/>
      </g>
    </g>
    <g id="y.edge.7">
      <g text-rendering="geometricPrecision" stroke-miterlimit="1.45" shape-rendering="geometricPrecision" transform="matrix(1,0,0,1,-5,15)" stroke-linecap="butt">
        <path fill="none" d="M395.5 220 L395.5 235.5 L755.5 235.5 L755.5 258.9692"/>
        <path d="M755.5 266.9692 L760.5 254.9692 L755.5 257.9692 L750.5 254.9692 Z" stroke="none"/>
      </g>
    </g>
    <g id="y.edge.8">
      <g text-rendering="geometricPrecision" stroke-miterlimit="1.45" shape-rendering="geometricPrecision" transform="matrix(1,0,0,1,-5,15)" stroke-linecap="butt">
        <path fill="none" d="M815.5 140 L815.5 258.969"/>
        <path d="M815.5 266.969 L820.5 254.969 L815.5 257.969 L810.5 254.969 Z" stroke="none"/>
      </g>
    </g>
    <g id="y.edge.9">
      <g text-rendering="geometricPrecision" stroke-miterlimit="1.45" shape-rendering="geometricPrecision" transform="matrix(1,0,0,1,-5,15)" stroke-linecap="butt">
        <path fill="none" d="M298 60 L298 75.5 L155.5 75.5 L155.5 258.9532"/>
        <path d="M155.5 266.9532 L160.5 254.9532 L155.5 257.9532 L150.5 254.9532 Z" stroke="none"/>
      </g>
    </g>
    <g id="y.edge.10">
      <g text-rendering="geometricPrecision" stroke-miterlimit="1.45" shape-rendering="geometricPrecision" transform="matrix(1,0,0,1,-5,15)" stroke-linecap="butt">
        <path fill="none" d="M305.5 220 L305.5 235.5 L215.5 235.5 L215.5 258.9692"/>
        <path d="M215.5 266.9692 L220.5 254.9692 L215.5 257.9692 L210.5 254.9692 Z" stroke="none"/>
      </g>
    </g>
  </g>
</svg>
